<?xml version="1.0" standalone="no"?>
<!DOCTYPE svg PUBLIC "-//W3C//DTD SVG 20010904//EN"
 "http://www.w3.org/TR/2001/REC-SVG-20010904/DTD/svg10.dtd">
<svg version="1.0" xmlns="http://www.w3.org/2000/svg"
 width="652.000000pt" height="652.000000pt" viewBox="0 0 652.000000 652.000000"
 preserveAspectRatio="xMidYMid meet">
<metadata>
Created by potrace 1.14, written by Peter Selinger 2001-2017
</metadata>
<g transform="translate(0.000000,652.000000) scale(0.100000,-0.100000)"
fill="#000000" stroke="none">
<path d="M4430 6190 c-279 -60 -488 -204 -624 -430 -43 -71 -145 -332 -178
-455 -8 -31 -17 -45 -29 -45 -10 0 -20 6 -22 13 -4 10 -6 10 -6 0 -1 -15 -31
-18 -31 -4 0 5 -10 7 -22 3 -16 -4 -19 -2 -13 9 7 12 6 12 -7 1 -13 -10 -17
-10 -22 5 -6 15 -8 15 -16 3 -6 -9 -10 -10 -10 -3 0 6 -8 12 -17 12 -16 0 -48
6 -63 11 -3 1 -13 2 -22 1 -10 -1 -18 3 -18 10 0 10 -3 10 -11 2 -9 -9 -15 -8
-26 3 -11 10 -19 12 -27 4 -7 -5 -16 -6 -20 -2 -4 4 -12 8 -17 8 -5 1 -10 2
-11 4 -6 4 -45 10 -85 12 -24 2 -43 5 -43 8 0 3 -17 7 -37 9 -71 6 -88 8 -88
10 0 2 -101 13 -125 13 -8 1 -21 5 -27 11 -9 6 -13 5 -13 -4 0 -9 -3 -10 -8
-3 -4 5 -32 11 -62 13 -30 2 -65 4 -77 5 -13 0 -23 3 -23 6 0 3 -17 5 -38 5
-20 0 -47 3 -59 7 -15 5 -23 3 -23 -3 0 -8 -4 -8 -12 -2 -7 5 -43 9 -81 9 -37
-1 -67 2 -67 5 0 9 -34 7 -47 -4 -8 -5 -13 -6 -13 0 0 11 -450 11 -467 0 -8
-5 -13 -3 -13 5 0 9 -3 9 -10 -2 -6 -10 -10 -11 -10 -3 0 9 -7 10 -26 3 -14
-6 -29 -8 -33 -6 -4 3 -13 1 -20 -4 -8 -4 -27 -4 -42 0 -16 5 -29 6 -29 2 0
-4 -10 -7 -22 -8 -13 0 -43 -4 -68 -8 -25 -4 -72 -9 -105 -11 -33 -2 -78 -6
-100 -10 -22 -4 -50 -8 -62 -9 -13 0 -23 -3 -23 -6 0 -4 -10 -7 -22 -8 -53 -3
-114 -15 -124 -23 -7 -6 -16 -9 -20 -8 -5 1 -22 -3 -37 -9 -16 -7 -32 -10 -37
-7 -5 3 -11 1 -14 -4 -4 -5 -14 -8 -24 -6 -9 1 -38 -5 -64 -15 -26 -10 -49
-15 -52 -12 -4 3 -6 0 -6 -6 0 -6 -6 -9 -14 -6 -7 3 -21 -2 -30 -12 -9 -9 -20
-14 -23 -10 -4 3 -15 -1 -25 -11 -10 -9 -18 -13 -18 -9 0 7 -59 -22 -70 -34
-16 -18 -68 -48 -74 -43 -3 3 -6 -1 -6 -10 0 -9 -3 -16 -7 -16 -21 3 -31 -3
-41 -26 -6 -14 -15 -24 -19 -23 -5 1 -22 -12 -40 -30 -17 -17 -28 -32 -25 -32
4 -1 -4 -10 -17 -20 -13 -11 -19 -20 -15 -20 5 0 1 -5 -8 -11 -10 -5 -18 -16
-18 -23 0 -8 -7 -19 -15 -26 -9 -7 -14 -19 -11 -26 3 -8 -3 -18 -12 -23 -9 -6
-13 -11 -8 -11 4 0 2 -10 -6 -22 -8 -13 -14 -31 -12 -41 1 -10 -4 -21 -12 -24
-8 -3 -11 -9 -8 -14 3 -6 1 -16 -6 -24 -8 -9 -8 -15 0 -20 8 -5 8 -11 1 -19
-9 -11 -16 -69 -25 -221 -1 -22 0 -44 2 -49 3 -5 6 -39 8 -75 6 -115 11 -153
21 -160 6 -3 9 -18 7 -33 -1 -16 2 -28 7 -28 6 0 7 -4 4 -10 -3 -5 -1 -10 5
-10 6 0 9 -4 6 -9 -4 -5 0 -12 6 -14 10 -4 9 -6 -1 -6 -12 -1 -11 -4 2 -18 8
-10 16 -22 17 -28 4 -27 37 -84 45 -78 4 5 5 0 2 -9 -4 -12 -1 -18 9 -18 8 0
13 -4 10 -9 -3 -4 1 -17 9 -27 8 -10 15 -29 15 -42 0 -13 4 -21 9 -18 8 5 19
-11 26 -36 2 -5 4 -11 5 -15 1 -5 2 -12 1 -16 -1 -5 3 -6 8 -3 5 3 15 -9 22
-27 7 -17 18 -35 23 -39 7 -5 6 -8 -2 -8 -7 0 -2 -10 12 -23 14 -13 23 -27 19
-30 -3 -4 -1 -7 6 -7 8 0 11 -7 7 -15 -3 -9 1 -18 9 -21 8 -4 15 -12 15 -20 0
-8 5 -14 11 -14 5 0 8 -4 5 -9 -3 -5 1 -14 9 -21 8 -7 12 -16 9 -21 -3 -5 0
-9 6 -9 6 0 8 -4 5 -10 -3 -5 -1 -10 4 -10 6 0 11 -7 11 -15 0 -8 11 -25 23
-37 13 -13 23 -32 21 -41 -1 -9 4 -17 12 -17 7 0 11 -6 8 -14 -3 -7 2 -16 11
-20 9 -3 14 -10 11 -14 -3 -5 4 -18 14 -30 11 -12 20 -26 20 -32 0 -5 5 -10
11 -10 5 0 7 -4 4 -10 -3 -5 -1 -10 5 -10 6 0 9 -4 6 -8 -3 -5 4 -14 14 -22
10 -8 17 -17 14 -22 -5 -7 7 -24 56 -85 6 -7 10 -17 10 -24 0 -12 40 -72 52
-77 4 -2 8 -10 8 -18 0 -9 4 -13 9 -9 6 3 8 -4 6 -15 -2 -11 1 -20 7 -20 5 0
7 -8 4 -17 -4 -10 -4 -14 0 -10 4 4 13 -1 20 -11 9 -13 10 -20 1 -31 -9 -11
-9 -13 -1 -8 11 6 18 -3 23 -28 2 -5 9 -17 17 -26 8 -9 12 -24 8 -33 -4 -11
-1 -16 11 -16 9 0 14 -4 10 -9 -3 -5 1 -15 8 -23 8 -7 12 -19 9 -27 -3 -8 1
-19 9 -25 16 -13 21 -46 7 -46 -6 0 0 -9 13 -21 13 -11 18 -17 10 -13 -10 5
-12 3 -5 -7 19 -31 10 -46 -50 -92 -176 -133 -300 -279 -346 -408 -21 -56 -24
-88 -28 -259 -2 -118 -8 -198 -14 -201 -17 -11 89 -898 117 -979 24 -71 82
-139 150 -176 33 -18 116 -47 185 -64 103 -27 150 -33 271 -37 134 -5 154 -3
250 21 57 14 199 44 314 67 116 22 274 56 353 74 109 26 148 32 163 24 11 -5
24 -7 29 -4 6 3 10 1 10 -5 0 -6 4 -9 9 -5 5 3 16 -2 24 -10 9 -8 24 -15 35
-15 11 0 25 -6 32 -14 6 -8 18 -12 26 -9 8 3 14 0 14 -7 0 -7 6 -10 14 -7 8 3
17 -1 20 -10 4 -8 12 -13 20 -10 8 3 17 3 21 -1 4 -4 10 -7 13 -8 4 0 24 -9
46 -18 21 -9 45 -15 53 -12 8 3 11 1 8 -4 -3 -5 7 -12 22 -15 15 -4 36 -10 46
-16 12 -6 17 -6 17 3 0 10 2 10 8 0 5 -7 18 -14 30 -17 12 -2 27 -7 33 -11 7
-4 19 -8 28 -9 9 -1 29 -7 44 -13 16 -7 33 -10 38 -6 5 3 9 1 9 -4 0 -5 6 -9
13 -10 34 -3 64 -9 75 -16 7 -4 17 -4 22 -1 6 3 10 1 10 -5 0 -7 8 -9 19 -5
11 3 22 1 25 -4 4 -6 13 -8 21 -4 8 3 15 0 15 -7 0 -7 8 -9 19 -5 11 3 22 1
26 -5 5 -8 11 -8 21 1 11 9 14 8 14 -3 0 -10 8 -13 30 -10 18 3 30 0 30 -7 0
-9 5 -9 21 0 15 8 19 8 15 0 -5 -7 3 -11 21 -12 46 -2 88 -7 88 -9 0 -4 46
-10 85 -11 19 0 40 -5 47 -10 7 -7 14 -6 18 1 4 7 13 7 27 -1 16 -9 19 -8 13
2 -6 8 -4 10 6 3 18 -11 39 -14 39 -5 0 4 9 7 19 7 11 0 17 -4 15 -8 -4 -7 20
-5 101 5 11 2 26 -2 34 -7 12 -9 13 -8 6 4 -7 12 -6 13 6 4 8 -6 23 -9 34 -7
11 2 29 4 40 4 11 0 23 5 27 12 6 9 8 8 8 -2 0 -9 4 -10 13 -4 6 5 27 9 45 8
17 0 32 3 32 8 0 5 8 7 18 5 9 -2 22 2 27 9 6 7 28 13 50 15 22 1 53 10 70 20
22 13 31 14 37 5 6 -9 8 -9 8 1 0 7 5 10 10 7 6 -3 10 -2 10 4 0 6 16 13 35
17 19 3 35 10 35 14 0 4 14 10 31 14 20 4 28 10 23 17 -4 8 -3 9 4 5 6 -4 22
0 35 9 13 8 27 12 30 8 4 -3 7 -1 7 6 0 7 5 9 10 6 6 -3 10 2 10 12 0 15 2 16
10 3 9 -13 14 -7 11 12 0 4 5 5 12 2 7 -2 22 4 34 15 11 11 23 17 27 14 3 -3
12 0 20 6 8 7 19 10 24 7 5 -3 15 6 22 19 7 13 17 22 21 19 4 -2 10 0 14 6 4
6 11 8 16 5 5 -4 12 1 15 9 3 9 12 16 20 16 7 0 18 8 23 18 7 10 11 12 11 4 0
-8 18 1 43 21 23 19 51 37 62 39 11 2 19 10 18 16 -2 7 4 12 12 12 8 0 15 5
15 10 0 6 7 10 15 10 8 0 15 5 15 11 0 5 3 8 8 5 4 -2 16 2 27 10 10 8 15 14
10 14 -5 0 8 12 30 27 22 15 49 35 59 45 11 10 26 18 33 18 8 0 12 4 8 9 -5 9
12 26 27 26 11 0 78 65 78 76 0 5 5 9 10 9 6 0 23 11 37 24 15 14 31 22 36 19
6 -3 7 -1 4 4 -8 12 60 89 74 86 5 -2 8 1 6 5 -3 10 43 56 66 65 10 4 15 11
12 17 -3 5 -1 10 4 10 6 0 11 7 11 17 0 9 3 14 6 10 7 -6 51 42 52 56 0 5 9
16 20 25 10 9 17 23 15 30 -3 6 2 12 11 12 14 0 20 12 17 33 0 4 8 7 19 7 11
0 20 6 20 14 0 8 7 17 16 20 8 3 12 11 9 17 -4 5 1 17 11 24 11 8 15 15 11 15
-4 0 -2 6 5 14 7 8 16 12 21 9 4 -2 7 3 7 11 0 9 5 16 11 16 5 0 8 4 5 9 -3 5
1 11 9 15 8 3 15 12 15 21 0 9 11 26 24 38 13 13 26 31 28 42 1 11 12 30 23
43 11 13 20 28 20 33 0 5 6 13 13 18 8 5 12 10 10 12 -1 2 8 22 21 44 14 22
25 43 25 47 1 4 9 16 18 27 9 11 13 22 10 26 -4 4 1 13 11 20 10 7 16 17 15
23 -2 6 6 18 17 27 11 9 13 13 5 9 -13 -7 -13 -5 -1 9 7 9 10 17 5 17 -5 0 0
7 10 15 11 8 15 15 8 15 -8 0 -7 8 3 28 32 62 43 92 34 92 -6 0 -3 7 5 16 9 8
14 20 11 25 -4 5 -1 9 4 9 6 0 11 11 11 25 0 14 6 25 13 25 9 0 9 2 -1 9 -11
7 -11 11 1 22 7 8 12 20 9 27 -2 7 0 18 5 25 5 7 9 31 9 54 -1 25 4 45 11 48
9 3 10 11 4 27 -4 13 -6 32 -4 43 9 48 10 65 1 65 -5 0 -4 9 2 20 6 10 8 36 5
57 -11 73 -12 104 -3 109 4 3 3 14 -2 25 -8 13 -7 19 0 19 8 0 8 6 0 20 -6 11
-8 25 -5 30 3 5 0 12 -6 16 -8 4 -7 9 2 15 10 6 10 9 2 9 -7 0 -10 7 -7 15 4
8 1 15 -6 15 -10 0 -10 3 0 15 7 9 8 15 2 15 -5 0 -10 6 -9 13 1 41 -4 67 -13
62 -6 -4 -10 7 -10 24 0 17 -5 31 -11 31 -8 0 -8 5 1 15 10 12 10 15 0 15 -8
0 -10 3 -7 7 4 3 0 17 -8 30 -9 13 -16 39 -17 58 -1 19 -7 36 -15 39 -8 3 -12
15 -9 30 3 18 -1 25 -16 29 -11 3 -17 10 -14 16 4 6 1 21 -6 33 -6 13 -13 30
-14 38 -2 8 -8 16 -13 18 -6 2 -11 15 -11 28 0 14 -6 24 -15 24 -9 0 -12 6 -9
15 4 8 1 15 -5 15 -6 0 -11 7 -11 15 0 8 -5 15 -11 15 -5 0 -7 5 -4 10 3 6 1
10 -5 10 -6 0 -9 4 -5 9 3 5 -2 16 -10 24 -8 9 -15 21 -15 27 0 6 -6 13 -14
16 -9 3 -12 13 -9 22 4 9 3 14 -2 10 -4 -4 -17 10 -27 32 -11 22 -24 40 -30
40 -5 0 -6 10 -3 21 4 12 3 19 -2 16 -5 -3 -17 3 -26 14 -9 10 -13 19 -9 19 4
0 2 4 -4 8 -6 4 -19 22 -28 40 -9 17 -21 32 -26 32 -6 0 -10 7 -10 15 0 8 -4
15 -10 15 -5 0 -10 7 -10 15 0 8 -4 15 -10 15 -5 0 -10 6 -10 14 0 8 -18 33
-40 56 -22 23 -40 45 -40 50 0 5 -4 10 -9 12 -5 1 -11 10 -13 18 -2 8 -25 36
-51 62 -27 26 -45 48 -40 49 4 0 0 3 -9 7 -15 6 -11 16 28 72 211 301 260 708
133 1108 -144 452 -509 781 -962 867 -112 21 -328 19 -437 -5z m500 -230 c97
-28 212 -88 278 -148 71 -63 297 -388 367 -527 136 -272 149 -496 40 -720 -50
-104 -125 -212 -148 -212 -9 0 -14 3 -12 7 4 6 -39 50 -49 50 -3 0 -18 12 -34
28 -37 34 -60 52 -66 52 -2 0 -18 14 -36 30 -18 17 -39 30 -47 30 -8 0 -11 5
-8 10 3 6 -3 10 -14 10 -12 0 -21 5 -21 10 0 6 -7 10 -15 10 -8 0 -15 5 -15
10 0 6 -7 10 -15 10 -8 0 -15 5 -15 10 0 6 -7 10 -15 10 -8 0 -15 5 -15 10 0
6 -7 10 -15 10 -8 0 -15 5 -15 10 0 6 -7 10 -15 10 -8 0 -15 5 -15 11 0 5 -4
7 -10 4 -5 -3 -10 -2 -10 3 0 4 -18 18 -40 31 -22 12 -40 26 -40 32 0 5 -5 9
-11 9 -5 0 -7 -6 -4 -12 4 -7 -3 -3 -14 10 -11 13 -25 21 -31 17 -5 -3 -10 -1
-10 5 0 6 -5 8 -11 5 -6 -4 -17 2 -25 13 -8 11 -28 23 -44 27 -17 4 -30 11
-30 16 0 6 -4 7 -10 4 -5 -3 -10 -1 -10 4 0 6 -4 10 -9 8 -5 -1 -17 7 -26 18
-9 11 -13 13 -9 5 6 -12 4 -13 -7 -2 -7 6 -21 12 -31 12 -10 0 -18 4 -18 10 0
5 -3 9 -7 8 -14 -3 -53 13 -53 22 0 5 -9 7 -20 5 -11 -2 -20 1 -20 6 0 6 -4 8
-9 5 -5 -3 -12 1 -15 10 -3 9 -13 14 -21 10 -8 -3 -17 -1 -20 4 -4 6 -17 10
-31 10 -13 0 -24 4 -24 9 0 6 -9 8 -20 6 -11 -2 -18 0 -15 4 5 8 -41 26 -57
23 -5 -1 -8 3 -8 9 0 6 -6 9 -14 6 -8 -3 -16 -2 -18 3 -2 4 -12 10 -23 12 -11
1 -23 7 -26 11 -3 4 -16 9 -27 10 -12 1 -22 5 -22 9 0 4 -9 5 -20 3 -11 -2
-18 0 -15 6 4 5 -5 9 -19 9 -14 0 -27 4 -31 10 -3 5 -12 7 -20 3 -8 -3 -15 0
-15 6 0 6 -11 11 -25 11 -14 0 -25 3 -25 8 0 4 -13 8 -30 8 -16 1 -36 8 -44
17 -8 8 -26 13 -40 12 -14 -2 -28 1 -32 6 -3 5 -14 9 -25 9 -10 0 -19 4 -19 9
0 22 75 221 107 285 84 168 219 319 349 392 80 45 209 90 296 103 94 15 270 5
358 -19z"/>
</g>
</svg>
