<?xml version="1.0" standalone="no"?>
<!DOCTYPE svg PUBLIC "-//W3C//DTD SVG 20010904//EN"
 "http://www.w3.org/TR/2001/REC-SVG-20010904/DTD/svg10.dtd">
<svg version="1.0" xmlns="http://www.w3.org/2000/svg"
 width="600.000000pt" height="600.000000pt" viewBox="0 0 600.000000 600.000000"
 preserveAspectRatio="xMidYMid meet">
<metadata>
Created by potrace 1.14, written by Peter Selinger 2001-2017
</metadata>
<g transform="translate(0.000000,600.000000) scale(0.100000,-0.100000)"
fill="#000000" stroke="none">
<path d="M4140 5890 c-269 -58 -470 -192 -607 -402 -56 -86 -87 -160 -162
-384 -95 -285 -144 -495 -172 -734 -14 -128 -6 -433 15 -537 62 -306 253 -542
502 -619 84 -26 86 -26 322 -21 259 6 313 14 490 73 395 131 818 488 976 824
156 331 136 776 -51 1143 -122 239 -309 429 -538 546 -98 50 -232 96 -338 116
-112 21 -328 19 -437 -5z m500 -230 c112 -32 225 -95 295 -165 69 -69 273
-362 340 -488 77 -145 125 -312 125 -438 0 -150 -65 -325 -180 -479 -80 -109
-302 -329 -405 -401 -176 -124 -345 -206 -550 -266 -147 -43 -260 -52 -356
-29 -194 45 -312 145 -414 351 -94 189 -103 345 -42 735 59 378 101 538 184
705 84 167 219 318 349 391 80 45 209 90 296 103 94 15 270 5 358 -19z"/>
<path d="M3075 3175 c-132 -24 -229 -56 -619 -206 -864 -333 -1061 -416 -1291
-548 -203 -117 -440 -294 -547 -409 -64 -68 -122 -159 -149 -235 -19 -54 -23
-87 -27 -257 -2 -117 -8 -198 -14 -201 -18 -11 91 -911 119 -981 53 -134 121
-183 333 -238 104 -27 150 -33 271 -37 134 -5 154 -3 250 21 57 14 199 44 314
67 945 182 1642 465 2206 896 284 217 459 503 459 751 0 183 -54 349 -221 680
-181 358 -208 401 -319 512 -109 110 -193 158 -322 184 -94 19 -341 20 -443 1z
m-565 -1172 c133 -32 274 -115 368 -217 23 -25 44 -56 48 -70 17 -67 -34 -157
-168 -301 -181 -194 -412 -320 -683 -373 -212 -42 -364 -37 -481 17 -119 55
-152 145 -97 263 39 84 164 237 304 374 175 169 238 211 448 295 106 43 131
44 261 12z"/>
</g>
</svg>
