<?xml version="1.0" encoding="UTF-8"?>
<svg id="Layer_2" data-name="Layer 2" xmlns="http://www.w3.org/2000/svg" viewBox="0 0 83.67 36.64">
  <defs>
    <style>
      .cls-1 {
        fill: #fff;
      }
    </style>
  </defs>
  <g id="Livello_1" data-name="Livello 1">
    <g>
      <path class="cls-1" d="M0,.35H1.18V4.62H6.71V.35h1.18V10.35h-1.18V5.67H1.18v4.68H0V.35Z"/>
      <path class="cls-1" d="M9.23,5.36c0-3.23,2.13-5.36,5.38-5.36s5.39,2.13,5.39,5.36-2.13,5.35-5.39,5.35-5.38-2.13-5.38-5.35Zm9.57,0c0-2.6-1.66-4.31-4.2-4.31s-4.2,1.72-4.2,4.31,1.66,4.3,4.2,4.3,4.2-1.72,4.2-4.3Z"/>
      <path class="cls-1" d="M21.34,.35h1.18V9.3h5.12v1.05h-6.3V.35Z"/>
      <path class="cls-1" d="M27.51,5.36c0-3.23,2.13-5.36,5.38-5.36s5.39,2.13,5.39,5.36-2.13,5.35-5.39,5.35-5.38-2.13-5.38-5.35Zm9.57,0c0-2.6-1.66-4.31-4.2-4.31s-4.2,1.72-4.2,4.31,1.66,4.3,4.2,4.3,4.2-1.72,4.2-4.3Z"/>
      <path class="cls-1" d="M39.27,5.36c0-3.28,1.93-5.36,4.99-5.36,2.17,0,3.86,1.36,4.31,3.5l-1.12,.27c-.3-1.67-1.55-2.72-3.19-2.72-2.34,0-3.82,1.67-3.82,4.31,.01,2.62,1.62,4.3,4.13,4.3,2,0,3.46-1.28,3.76-3.28l1.13,.28c-.38,2.47-2.28,4.04-4.89,4.04-3.25,0-5.3-2.08-5.3-5.35Z"/>
      <path class="cls-1" d="M58.68,6.61V.35h1.18V6.61c0,1.67,1.12,3.05,2.88,3.05s2.87-1.25,2.87-3.05V.35h1.19V6.61c0,2.43-1.66,4.1-4.06,4.1s-4.06-1.67-4.06-4.1Z"/>
      <path class="cls-1" d="M67.78,7.2l1.16-.21c.1,1.56,1.42,2.67,3.16,2.67,1.57,0,2.54-.84,2.54-1.93,0-.88-.62-1.4-2.08-1.74l-1.62-.37c-1.77-.41-2.61-1.22-2.61-2.55,0-1.8,1.35-3.06,3.39-3.06,1.83,0,3.22,1.15,3.5,2.82l-1.12,.28c-.14-1.22-1.09-2.06-2.37-2.06-1.36,0-2.23,.78-2.23,1.82,0,.85,.54,1.33,1.8,1.62l1.62,.37c1.93,.43,2.89,1.33,2.89,2.69,0,1.83-1.46,3.16-3.72,3.16s-4.1-1.45-4.33-3.5Z"/>
      <path class="cls-1" d="M79.14,1.4h-3.35V.35h7.87V1.4h-3.35V10.35h-1.18V1.4Z"/>
      <path class="cls-1" d="M69.98,22.44l-.61-2.1c-.21-.74-.79-1.25-1.47-1.25h-2.52v4.23h-1.18V13.32h4.48c2.07,0,3.55,1.19,3.55,2.87,0,1.39-1.04,2.45-2.71,2.68h0c.54,.28,.88,.77,1.05,1.36l.5,1.8c.09,.34,.28,.58,.6,.58s.65-.26,.88-.65l.6,.69c-.41,.57-1.01,.95-1.7,.95-.79,0-1.25-.48-1.45-1.16Zm-1.3-4.4c1.39,0,2.37-.75,2.37-1.83s-.98-1.84-2.37-1.84h-3.3v3.67h3.3Z"/>
      <path class="cls-1" d="M73.98,13.32h6.84v1.05h-5.69v3.28h5.12v1.02h-5.12v3.6h5.83v1.05h-6.98V13.32Z"/>
      <polygon class="cls-1" points="58.68 13.32 58.68 14.37 58.68 23.32 59.86 23.32 59.86 14.37 63.2 14.37 63.2 13.32 58.68 13.32"/>
      <path class="cls-1" d="M21.87,26.29h1.57l5.12,8.48h.03v-8.48h1.19v10h-1.57l-5.13-8.47h-.03v8.47h-1.18v-10Z"/>
      <path class="cls-1" d="M31.13,31.29c0-3.23,2.13-5.36,5.38-5.36s5.39,2.13,5.39,5.36-2.13,5.35-5.39,5.35-5.38-2.13-5.38-5.35Zm9.57,0c0-2.6-1.66-4.31-4.2-4.31s-4.2,1.72-4.2,4.31,1.66,4.3,4.2,4.3,4.2-1.72,4.2-4.3Z"/>
      <path class="cls-1" d="M49.03,35.4l-.61-2.1c-.21-.74-.79-1.25-1.47-1.25h-2.52v4.23h-1.18v-10h4.48c2.07,0,3.55,1.19,3.55,2.87,0,1.39-1.04,2.45-2.71,2.68h0c.54,.28,.88,.77,1.05,1.36l.5,1.8c.09,.34,.28,.58,.6,.58s.65-.26,.88-.65l.6,.69c-.41,.57-1.01,.95-1.7,.95-.79,0-1.25-.48-1.45-1.16Zm-1.3-4.4c1.39,0,2.37-.75,2.37-1.83s-.98-1.84-2.37-1.84h-3.3v3.67h3.3Z"/>
      <polygon class="cls-1" points="56.36 26.29 56.36 27.34 56.36 36.28 55.19 36.28 55.19 27.34 51.84 27.34 51.84 26.29 56.36 26.29"/>
      <path class="cls-1" d="M28.94,18.33c0-3.28,1.93-5.36,4.99-5.36,2.17,0,3.86,1.36,4.31,3.5l-1.12,.27c-.3-1.67-1.55-2.72-3.19-2.72-2.34,0-3.82,1.67-3.82,4.31,.01,2.62,1.62,4.3,4.13,4.3,2,0,3.46-1.28,3.76-3.28l1.13,.28c-.38,2.47-2.28,4.04-4.89,4.04-3.25,0-5.3-2.08-5.3-5.35Z"/>
      <path class="cls-1" d="M40.27,13.32h6.84v1.05h-5.69v3.28h5.12v1.02h-5.12v3.6h5.83v1.05h-6.98V13.32Z"/>
      <polygon class="cls-1" points="54.62 .35 49.06 10.35 50.41 10.35 55.17 1.53 55.17 21.8 55.14 21.8 50.02 13.32 48.45 13.32 48.45 23.32 49.63 23.32 49.63 14.85 49.65 14.85 54.79 23.32 56.36 23.32 56.36 13.32 56.36 9.3 56.36 5.77 56.36 4.78 56.36 1.42 56.36 1.07 56.36 .35 54.62 .35"/>
      <path class="cls-1" d="M58.68,23.32h1.18v7.24h5.53v-4.27h1.18v10h-1.18v-4.68h-5.53v4.68h-1.18v-12.97Z"/>
    </g>
  </g>
</svg>