<?xml version="1.0" encoding="UTF-8"?>
<svg id="Layer_2" data-name="Layer 2" xmlns="http://www.w3.org/2000/svg" viewBox="0 0 1686 605.98">
  <defs>
    <style>
      .cls-1 {
        fill: #fff;
      }
    </style>
  </defs>
  <g id="Layer_1-2" data-name="Layer 1">
    <g>
      <path class="cls-1" d="M234.5,0c18.82,3.96,30.2,17.21,39.78,32.38,4.62,7.32,8.37,15.18,12.51,22.81,.75,1.39,1.45,2.81,2.28,4.43,3.69-3.89,6.99-7.63,10.58-11.08,8.42-8.08,17.68-15.05,29.36-17.48,22.02-4.58,40.76,8.37,45.74,31.1,3.73,17.05,1.3,33.72-4.7,49.58-8.15,21.52-17.01,42.84-26.89,63.61-5.07,10.67-6.32,19.81-.36,30.29,3.92,6.89,6.3,14.66,9.37,22.06,4.2-1.01,8.19-2.27,12.28-2.91,25.98-4.08,45.87,10.2,50.17,36.22,1.1,6.64,1.17,13.45,1.65,19.5,5.27-2.08,10.94-5.16,17-6.56,18.02-4.15,35.73,5.8,43.36,23.7,5.59,13.13,6.59,26.94,4.4,40.75-1.67,10.51-5.2,20.72-7.4,31.17-.74,3.54-.38,7.48,.25,11.11,16.06,91.94-39.07,183.81-128.09,211.86-51.65,16.28-102.23,12.71-150.23-13.28-32.99-17.86-55.84-45.62-72.77-78.58-11.92-23.2-19.2-47.99-25.36-73.21-4.26-17.41-9.83-34.42-18.81-50.1-10.04-17.54-24.44-29.41-44.24-34.62-12.28-3.23-23.04-9.13-29.55-20.65-8.52-15.07-5.58-33.2,7.59-46.69,12.89-13.21,29.23-19.58,47.1-21.93,40.95-5.37,75.9,7.9,106.07,35.22,1.59,1.44,3.16,2.92,4.94,4.57,4.11-12.1,7.67-24.04,12.19-35.61,10.08-25.74,20.59-51.31,31.07-76.89,1.08-2.63,1.12-4.68-.03-7.25-12.01-26.8-21.93-54.3-26.9-83.36-3.13-18.32-4.69-36.65,1.2-54.78,3.73-11.48,9.28-22.01,19.94-28.34C213.54,3.73,220.19,2.28,226.34,0c2.72,0,5.44,0,8.15,0Zm51.02,243.54c.68-1.57,1.15-2.8,1.72-3.99,15.21-31.75,30.57-63.42,45.58-95.26,8.95-18.98,17.51-38.18,20.35-59.27,1.25-9.3,.48-18.23-6.42-25.47-3.83-4.02-8.38-6.21-14.23-5.09-7.95,1.52-14.14,6.05-19.91,11.26-13.41,12.14-23.8,26.73-33.33,41.94-29.46,47.01-52.11,97.37-72.39,148.82-8.64,21.92-15.93,44.31-18.29,67.98-.11,1.11-1.47,2.54-2.59,3.04-3.58,1.6-7.39,2.66-10.98,4.25-2.56,1.14-3.97,.73-5.66-1.64-11.09-15.49-24.28-28.88-40.69-38.77-24.1-14.53-49.84-19.27-77.28-11.79-9.84,2.68-18.79,7.27-24.71,16.07-4.62,6.86-3.29,14.69,3.48,19.3,3.18,2.17,6.92,3.84,10.64,4.84,25.83,6.93,44.67,22.55,57.82,45.52,10.65,18.62,17.31,38.76,22.56,59.38,6.64,26.1,15.19,51.44,29.59,74.36,37.2,59.19,90.41,86.26,160.21,76.84,43.43-5.86,78.49-27.91,106.08-61.66,19.85-24.29,31.67-52.25,35.72-83.33,1.19-9.12,1.14-18.4,1.65-27.61l-1.18-.18c-.87,1.49-1.57,3.1-2.63,4.44-4.78,6.03-9,12.7-14.61,17.84-18.68,17.1-60.36,16.58-69.33-21.65-.23-.97-.5-1.92-1.08-4.11-2.05,2.43-3.29,4.25-4.86,5.71-10.42,9.63-22.57,14.45-36.85,12.19-21.48-3.4-33.52-17-38.76-37.24-4.13-15.97-2.65-32.05,.75-47.92,6.4-29.85,18.19-57.21,38.24-80.63,2.59-3.03,7.12-5.76,7.47-8.99,.39-3.59-2.97-7.59-4.71-11.41-2.25-4.96-4.51-9.91-6.91-15.19-6.22,11.81-12.13,23.03-18.17,34.49-5.72-2.48-10.89-4.72-16.3-7.07Zm108.89,36.53c-1.44-6.7-2.2-13.65-4.49-20.04-3.76-10.51-14.17-15.32-25.09-12.62-11.41,2.82-19.55,10.35-26.69,19.03-14.88,18.09-24.31,38.95-30.22,61.46-4.01,15.3-6.29,30.77-3.27,46.58,4.34,22.68,24.7,30.62,42.55,16.04,6.18-5.05,11.31-11.68,15.93-18.29,9.46-13.54,14.82-29.13,20.46-44.5,5.62-15.32,9.6-31.01,10.82-47.65Zm65.64,45.49c-1.11-4.67-2.06-12.58-4.91-19.73-4.57-11.51-15.7-14.51-26-7.64-3.79,2.53-7.38,5.62-10.35,9.07-16.15,18.67-25.52,40.7-30.9,64.52-2.25,9.98-2.93,20.15,.07,30.16,3.21,10.75,11.96,15.83,22.91,13.87,8.89-1.59,15.81-6.45,21.46-13.04,18.25-21.26,25.58-46.62,27.72-77.21ZM228.64,147.38c.99-1.52,1.25-1.84,1.43-2.2,11.56-23.06,24.54-45.26,39.9-66.04,.84-1.14,.88-3.66,.22-5-4.4-8.84-8.56-17.88-13.86-26.17-4.47-7-9.78-13.73-15.81-19.43-7.26-6.86-17.08-5.45-23.7,2.2-6.11,7.07-8.54,15.64-9.18,24.7-1.28,17.86,2.72,35.01,7.85,51.9,4,13.16,8.57,26.15,13.15,40.03Z"/>
      <path class="cls-1" d="M1686,295.75c-32.34,.05-64.67,.09-97.01,.14-2.56,0-5.12,0-8.92,0,1.07,4.35,1.4,8.44,3.05,11.91,6.84,14.41,19.05,21.28,34.48,22.06,17.57,.89,33.63-3.61,47.13-16.3,6.42,7.2,12.79,14.35,19.21,21.56-6.4,7.71-14.09,13.22-22.94,16.96-25.36,10.71-51.07,12.63-76.55,.87-22.68-10.47-34.65-29.34-38.6-53.44-3.27-19.98-1.16-39.36,9.96-56.81,13.47-21.12,32.99-31.88,58.1-32.65,17-.53,32.62,3.1,46,14.16,13.55,11.2,20.26,26.18,23.58,42.97,1.02,5.15,1.69,10.37,2.51,15.55v13.04Zm-37.06-25.57c.61-14.14-12.04-31.23-34.78-30.31-18.44,.74-34.88,15.24-33.43,30.31h68.2Z"/>
      <path class="cls-1" d="M664.24,0c.44,6.19,.99,12.38,1.3,18.58,.72,14.06,1.32,28.13,1.98,42.57h-8.79c-.67-14.89-1.33-29.69-2.03-45.37-1.09,1.42-1.77,2.16-2.27,3-4.47,7.43-8.87,14.9-13.35,22.32-2.19,3.62-5.23,3.64-7.42,.02-4.21-6.95-8.33-13.96-12.51-20.94-.67-1.12-1.41-2.21-2.93-3.19-.69,14.66-1.38,29.31-2.08,44.23h-8.34c.88-20.49,1.75-40.87,2.62-61.24,2.99,0,5.98,0,8.97,0,5.99,10.49,11.98,20.98,18.32,32.08C644.12,20.88,650.11,10.44,656.09,0c2.72,0,5.44,0,8.15,0Z"/>
      <path class="cls-1" d="M1031.19,0V22.62c4.6-3.87,9.6-5.26,15.16-4.78,5.95,.51,10.81,3.05,13.77,8.21,4.7,8.18,5.28,16.82,.78,25.25-4.22,7.92-11.44,11.45-20.2,11.37-5.11-.05-10.24-.88-15.3-1.75-1.07-.18-2.65-2.04-2.66-3.13-.15-18.73-.1-37.47-.07-56.2,0-.53,.23-1.05,.36-1.58,2.72,0,5.44,0,8.15,0Zm.02,54.41c7.39,1.61,14.53,2.33,20.04-3.87,4.93-5.55,4.8-12.15,2.11-18.68-2.1-5.1-6.91-7.38-12.67-6.53-4.92,.73-9.09,4.64-9.4,9.78-.38,6.31-.09,12.66-.09,19.3Z"/>
      <path class="cls-1" d="M758.02,0V61.27h-7.78c-.22-1.12-.47-2.36-.53-2.66-4.79,1.39-9.5,3.56-14.37,3.99-6.76,.59-11.97-3.07-15.41-8.85-5.01-8.43-4-21.04,2.08-28.35,5.95-7.15,15.41-9.33,25.6-5.92,.5,.17,1.03,.23,2.25,.5V0h8.15Zm-8,36.95c-.1,0-.2-.02-.3-.03,0-2.17,.17-4.36-.07-6.5-.12-1.05-.73-2.36-1.55-2.96-6.94-5.04-17.57-2.13-21.1,5.71-2.17,4.81-2.13,9.76-.37,14.66,1.88,5.23,5.87,7.74,11.68,7.58,5.2-.14,9.4-3.21,10.64-8.41,.77-3.25,.75-6.69,1.08-10.05Z"/>
      <path class="cls-1" d="M1269.31,0V24.23c4.46-4.74,9.37-6.75,15.26-6.46,8.47,.42,14.37,5.33,14.8,13.77,.5,9.72,.12,19.49,.12,29.61h-8.16c0-4.84,0-9.67,0-14.5,0-4.07,.14-8.15-.12-12.2-.26-4.2-1.99-7.62-6.41-8.94-4.46-1.33-9.81-.06-11.93,3.86-1.86,3.44-3.1,7.52-3.41,11.42-.54,6.71-.15,13.5-.15,20.5h-8.13c-.15-.8-.41-1.56-.41-2.32-.02-18.72-.03-37.44,0-56.16,0-.93,.26-1.87,.39-2.8,2.72,0,5.44,0,8.15,0Z"/>
      <path class="cls-1" d="M1077.68,0V61.21h-8.15V0h8.15Z"/>
      <path class="cls-1" d="M645.69,355.7h-37.48V155.43h37.36v79.83h99.43v-79.71h38.1v200.13h-37.9v-85.77h-99.5v85.78Z"/>
      <path class="cls-1" d="M1404.47,405.09c5.58-9.16,10.78-17.7,16.17-26.54,1.17,.64,2.2,1.19,3.21,1.77,14.22,8.19,29.64,10.39,45.61,8.14,13.62-1.92,22.91-11.95,24.56-26.1,.73-6.23,.12-12.62,.12-19.2-3.76,2.33-7.18,4.73-10.84,6.66-33.28,17.57-77.2-.34-88.13-36.61-8.14-27.01-5.05-52.79,13.57-75.1,14.19-17.01,33.33-24.76,55.05-26.13,21.34-1.34,42.21,1.85,62.7,7.85,2.88,.85,3.69,2.16,3.69,5.08-.09,43.97-.06,87.95-.07,131.93,0,31.93-16.97,53.84-48.19,60.49-21.65,4.61-43.23,2.86-64.02-5.11-4.61-1.77-8.8-4.62-13.43-7.12Zm89.79-159.48c-9-3.5-18.13-3.18-27.22-2.8-9.1,.39-17.32,3.56-24.22,9.47-15.02,12.86-17.91,29.49-13.5,47.73,3.1,12.81,10.64,22.17,24.55,23.91,6.23,.78,12.8,.58,19-.48,13.61-2.33,20.82-10.17,21.25-23.81,.57-17.89,.14-35.82,.14-54.01Z"/>
      <path class="cls-1" d="M942.18,295.9h-105.78c-.48,5.41,.87,10.04,3.35,14.27,7.49,12.77,19.09,19.16,33.57,19.7,19.19,.71,29.1-3.02,47.12-16.13,3.12,3.49,6.27,7.01,9.41,10.54,3.15,3.54,6.3,7.08,10.15,11.42-5.24,4.16-9.89,8.82-15.38,12.03-23.32,13.63-48.42,16.81-74.17,9.24-28.51-8.38-44.29-28.79-49.03-57.62-3.3-20.09-1.12-39.61,10.28-57.14,13.57-20.88,33.02-31.44,57.95-32.15,16.39-.47,31.56,2.87,44.68,13.23,14.17,11.19,21.49,26.37,24.6,43.67,1.67,9.28,2.15,18.76,3.26,28.96Zm-37.31-25.74c-.96-11.74-5.83-20.91-16.27-26.12-14.11-7.03-27.96-5.58-40.69,3.62-7.45,5.38-11.57,12.85-12.04,22.5h69Z"/>
      <path class="cls-1" d="M1340.95,263.98c1.37-12.06-6.63-21.39-20.95-23.63-15.14-2.37-29.45,.04-42.74,7.89-1.97,1.17-3.98,2.28-6.3,3.61-5.4-7.99-10.77-15.94-16.22-24.03,10.62-8.15,22.35-13.22,35.22-15.51,17.54-3.12,35.09-4.22,52.26,2.01,21.38,7.76,33.22,24.84,33.22,47.6,0,29.6,0,59.19,0,88.79,0,1.59,0,3.18,0,5.18-10.76,0-21.05,.05-31.34-.12-.72-.01-1.87-1.63-2.02-2.63-.46-3-.53-6.06-.79-9.78-8.75,8.02-18.16,13.25-29.02,15.43-17.58,3.53-34.27,1.58-48.42-10.31-23.53-19.77-18.8-60.05,8.66-75.68,11.27-6.42,23.64-8.6,36.41-8.79,10.56-.16,21.13-.03,32.03-.03Zm.08,27.63c-11.64-.09-23.13-.47-34.59-.11-4.06,.13-8.31,1.53-12.03,3.28-7.45,3.49-11.92,12.07-11.15,20.12,.78,8.1,5.42,13.28,12.95,15.52,12.27,3.65,23.94,2.1,34.36-5.7,5.22-3.91,9.53-8.85,10.32-15.52,.65-5.46,.13-11.07,.13-17.59Z"/>
      <path class="cls-1" d="M1139.45,467.16v-65.87h27.01v200.04h-26c-.35-5.22-.71-10.54-1.1-16.42-.87,.66-1.43,.95-1.81,1.39-25.52,30.29-80.26,26.08-98.15-16.1-13.09-30.89-11.82-61.45,10.95-88.21,19.82-23.3,54.43-29.9,83.88-17.11,1.57,.68,3.14,1.37,5.21,2.27Zm-.59,52.65c.22,0,.44,0,.66,0,0-7.73-.14-15.46,.07-23.19,.08-2.98-.98-4.69-3.44-6.22-7.18-4.45-14.98-6.78-23.32-7.77-25.57-3.04-45.77,11.02-51.5,36.08-2.49,10.89-2.22,21.78,.44,32.62,1.81,7.35,4.8,14.16,10.17,19.61,11.65,11.81,25.97,13.71,41.01,9.22,15.28-4.57,23.71-16.13,25.68-31.53,1.21-9.46,.22-19.2,.22-28.81Z"/>
      <path class="cls-1" d="M608.09,401.21h125.57v25.79h-96.65v61.1h73.45v25.86h-73.69v87.39h-28.68v-200.13Z"/>
      <path class="cls-1" d="M1223.29,243.77h-37.55c-.11,1.51-.28,2.69-.28,3.86-.02,19.55-.22,39.09,.13,58.63,.09,5.16,1.37,10.48,3.08,15.39,1.98,5.67,6.83,7.98,12.8,8.36,8.9,.57,16.49-2.55,23.89-8.18,5.06,7.36,10,14.56,15.16,22.07-7.09,6.2-14.73,10.91-23.51,13.57-11.26,3.41-22.77,3.85-34.23,1.47-17.93-3.72-28.78-15.74-31.59-34.81-.83-5.61-1.24-11.33-1.29-17.01-.15-19.41-.06-38.82-.06-58.23v-5.14h-23.83v-28.95h23.72v-45.45h35.7v45.25h37.87v29.15Z"/>
      <path class="cls-1" d="M867.08,601.42h-25.58c-.31-6.46-.6-12.64-.94-19.77-1.84,2.02-3.12,3.32-4.29,4.72-18.07,21.44-51.55,22.32-71.05,11.91-13.37-7.14-19.62-19.48-22.54-33.67-1.19-5.81-1.79-11.83-1.83-17.76-.19-27.28-.08-54.56-.08-81.84,0-.92,.1-1.83,.16-2.96h27.02v4.89c0,25.65-.06,51.3,.05,76.95,.02,4.31,.41,8.69,1.23,12.93,3.26,16.93,14.77,25.15,31.99,24.52,20.92-.77,33.25-16.61,36.62-34.31,1.29-6.75,1.95-13.71,2.04-20.59,.27-19.81,.09-39.63,.09-59.44v-4.98h27.11v139.4Z"/>
      <path class="cls-1" d="M915.54,601.46h-27.03v-139.27h25.6c.3,6.25,.61,12.56,.95,19.42,.9-.7,1.37-.92,1.65-1.29,11.89-15.54,27.76-22.08,47.16-21.83,28.86,.36,47.86,17.12,51.01,45.9,.53,4.84,.79,9.74,.8,14.61,.08,25.93,.04,51.87,.04,77.8v4.67h-27.05c0-1.8,0-3.39,0-4.99,0-24.71,.16-49.42-.11-74.13-.07-6.59-.75-13.34-2.41-19.7-3.26-12.49-13.39-19.64-26.32-20.48-25.87-1.67-37.79,15.18-41.8,33.8-1.59,7.37-2.25,15.04-2.38,22.6-.32,19.41-.11,38.83-.11,58.25,0,1.47,0,2.94,0,4.65Z"/>
      <path class="cls-1" d="M959.55,355.65V214.98h33.98c.37,5.39,.74,10.71,1.15,16.75,16.54-18.39,36.32-23.29,59.79-17.25-2.47,11.41-4.83,22.35-6.95,32.15-8.49-.13-16.56-1.32-24.28-.16-17.16,2.58-27.98,16.13-28.04,33.71-.09,23.48-.02,46.96-.02,70.43v5.04h-35.63Z"/>
      <path class="cls-1" d="M1106.95,355.8h-35.04V214.94h35.04v140.86Z"/>
      <path class="cls-1" d="M1108.4,155.45v36.89h-37.89v-36.89h37.89Z"/>
      <path class="cls-1" d="M1142.04,18.89h9.14c3.01,10.19,6.03,20.43,9.41,31.86,3.61-11.29,6.9-21.57,10.16-31.73q7.15-.66,9.17,5.75c2.64,8.39,5.29,16.77,8.29,26.28,2.63-9.16,4.94-17.26,7.29-25.35q2.16-7.44,10.58-6.65c-1.83,5.7-3.6,11.32-5.45,16.91-2.46,7.47-5.16,14.86-7.38,22.4-.95,3.23-2.94,3.26-5.51,3.21-2.4-.04-4.24,.02-5.13-3.11-2.04-7.16-4.64-14.17-7.02-21.23-.41-1.22-.91-2.41-1.77-4.65-2.63,7.87-4.92,14.73-7.21,21.6-.38,1.16-.83,2.31-1.05,3.5-.56,3.06-2.23,3.98-5.38,3.98-3.2,0-4.36-1.15-5.29-4.07-3.71-11.61-7.75-23.12-11.65-34.67-.42-1.25-.76-2.54-1.19-4.02Z"/>
      <path class="cls-1" d="M835.31,60.56v19.06h-8.21V19.09h7.43c.25,1.27,.53,2.69,.64,3.23,4.75-1.51,9.4-3.99,14.18-4.3,11.05-.71,18.43,7.16,19.47,19.5,1.52,18-13.2,29.55-30.43,23.88-.88-.29-1.79-.49-3.09-.85Zm-.32-17.01c.12,.02,.24,.03,.37,.05,0,2.17-.16,4.36,.07,6.5,.11,1.05,.66,2.39,1.47,2.97,7.73,5.53,19.52,2.12,22.17-6.87,1.12-3.81,.9-8.36,.08-12.33-1.18-5.75-5.28-8.5-10.81-8.62-6.05-.13-10.28,2.54-11.98,8.31-.94,3.18-.94,6.65-1.36,9.98Z"/>
      <path class="cls-1" d="M807.27,42.8h-33.82c.1,5.24,2.51,8.67,6.52,10.78,7.57,3.98,14.44,1.84,21.1-3.31,1.46,1.55,2.91,3.1,4.53,4.83-3.11,4.14-7.43,5.96-12.1,6.94-9.2,1.94-17.84,.86-23.99-6.99-6.26-7.97-6.7-16.99-2.48-26.08,3.66-7.9,11.56-12.06,20.74-11.44,8.35,.56,14.87,5.74,17.4,14.23,.99,3.32,1.33,6.83,2.11,11.04Zm-33.68-6.81h24.15c-.81-7.3-5.32-11.5-12-11.41-6.74,.09-11.73,4.63-12.15,11.41Z"/>
      <path class="cls-1" d="M1092.94,42.78c.56,5.56,3.04,9.07,7.36,11.12,7.39,3.5,13.97,1.38,20.61-3.76,1.38,1.52,2.8,3.08,4.1,4.52-.11,.57-.06,.92-.21,1.07-7.44,7.35-16.46,8.64-25.99,5.89-8.9-2.57-13.43-9.41-14.42-18.34-1.04-9.41,1.58-17.56,10.12-22.78,11.95-7.31,26.4-1.83,30.42,11.56,.98,3.28,1.26,6.77,1.96,10.73-6.27,0-11.67,0-17.08,0s-10.81,0-16.86,0Zm.47-6.87h24.04c-1.06-7.6-5.79-11.72-12.6-11.32-5.66,.33-12.08,4.93-11.45,11.32Z"/>
      <path class="cls-1" d="M702.4,34.22c.27-3.33-.38-6.38-3.53-7.98-6.76-3.43-13.14-1.75-19.58,2.33-1.28-1.85-2.53-3.66-3.76-5.43,6.85-6.27,21.5-7.59,28.81-2.8,4.07,2.67,6.09,6.59,6.17,11.3,.16,9.75,.05,19.5,.05,29.56h-7.5c-.24-1.12-.49-2.27-.76-3.53-.32,.12-.73,.17-.98,.39-4.32,3.89-9.5,5.05-15.11,4.6-6.99-.57-11.73-4.74-12.75-11.03-1.11-6.8,2.3-13.43,8.81-15.65,3.62-1.24,7.66-1.35,11.54-1.71,2.68-.25,5.4-.05,8.58-.05Zm-.16,6.35c-5.32,.39-10.59,.3-15.63,1.32-3.69,.74-5.14,4.17-4.85,7.92,.28,3.69,2.77,5.28,6.12,5.99,8.63,1.83,15.18-4.43,14.36-15.24Z"/>
      <path class="cls-1" d="M895.81,62.8c-12.71-.04-22.82-10.23-22.65-22.84,.17-12.74,10.33-22.82,22.9-22.71,12.67,.1,22.64,10.24,22.6,22.97-.04,12.73-10.05,22.62-22.85,22.58Zm-13.96-22.76c0,8.59,6.2,15.35,14.07,15.37,7.96,.02,14.15-6.65,14.15-15.25,0-8.47-6.37-15.48-14.08-15.54-7.75-.06-14.14,6.91-14.13,15.42Z"/>
      <path class="cls-1" d="M957.06,22.82c-1.68,2.14-3.01,3.83-3.94,5.02-4.23-1.2-8.01-2.55-11.91-3.24-1.87-.33-4.17,.18-5.88,1.07-1.32,.69-2.76,2.53-2.81,3.9-.04,1.35,1.3,3.4,2.57,4.01,2.9,1.39,6.16,2.02,9.23,3.07,2.81,.97,5.76,1.74,8.29,3.21,7.03,4.1,7.53,13.89,1.16,18.92-8.15,6.45-24.3,5.19-31.72-2.72,1.6-1.74,3.22-3.5,5.04-5.47,4.75,4.39,10.29,5.65,16.32,4.75,2.87-.43,5.85-1.28,6.13-4.87,.26-3.36-2.31-4.7-5-5.55-3.75-1.18-7.61-2-11.32-3.27-6.29-2.15-9.66-6.49-9.5-11.78,.16-5.17,3.55-9.38,9.64-11.3,8.42-2.66,16.26-1.42,23.71,4.23Z"/>
      <path class="cls-1" d="M962.29,56.09c1.72-1.89,3.26-3.58,4.99-5.48,4.57,4.23,9.97,5.61,15.89,4.78,2.97-.41,6.19-1,6.48-4.89,.27-3.62-2.51-4.82-5.31-5.69-3.75-1.17-7.62-1.96-11.31-3.26-6.14-2.18-9.08-6.19-8.98-11.64,.1-5.31,3.36-9.44,9.46-11.31,8.4-2.58,16.25-1.48,23.7,4.18-1.63,2.07-3.1,3.92-4.6,5.83-5.03-3.53-10.25-5.34-15.94-3.32-1.68,.6-3.82,2.73-3.89,4.24-.07,1.49,1.9,3.85,3.52,4.51,4.99,2.04,10.34,3.2,15.36,5.17,4.45,1.74,6.66,5.51,6.73,10.25,.06,4.55-2.08,8.01-5.99,10.4-8.55,5.24-23.18,3.57-30.11-3.77Z"/>
      <path class="cls-1" d="M1240.64,18.68h12.18v7.14h-11.73c0,8.52-.37,16.75,.15,24.93,.27,4.36,4.73,6.03,9.15,4.14,1.21-.52,2.31-1.3,3.62-2.04,1.2,1.59,2.33,3.08,3.44,4.53-3.64,4.71-10.28,6.6-16.58,4.84-5.4-1.51-7.91-4.65-8.32-11.56-.39-6.49-.25-13.02-.33-19.52-.02-1.59,0-3.18,0-4.98-2.73-.15-4.98-.27-7.48-.4v-6.81c2.29-.13,4.66-.26,7.4-.41V5.18h8.52v13.5Z"/>
      <path class="cls-1" d="M443.36,583.5c-12.13-.02-20.18-8.12-20.09-20.2,.09-11.7,8.36-19.85,20.16-19.86,12.03-.01,20.32,8.2,20.34,20.13,.01,11.9-8.23,19.95-20.41,19.93Zm13.89-19.66c.07-8.45-5.53-14.39-13.68-14.51-7.82-.11-13.64,5.81-13.76,14-.12,8.37,5.28,14.22,13.24,14.33,8.4,.12,14.13-5.45,14.2-13.82Z"/>
      <path class="cls-1" d="M1210.93,18.87h7.97V61.15h-7.97V18.87Z"/>
      <path class="cls-1" d="M1013.64,61.24h-8.18V19.06h8.18V61.24Z"/>
      <path class="cls-1" d="M1219.48,2.02V11.18h-9.08V2.02h9.08Z"/>
      <path class="cls-1" d="M1005.17,11.13V2.01h8.76V11.13h-8.76Z"/>
      <path class="cls-1" d="M210.42,454.27c6.92-3.24,13.63-6.38,20.44-9.57,2.19,4.95,4.02,9.77,6.37,14.31,15.6,30.02,40.17,46.28,74.2,47.27,17.27,.5,33.56-4.03,49.08-11.45,1.21-.58,2.44-1.13,4.04-1.88,2.82,6.87,5.57,13.57,8.31,20.23-61.27,37.65-135.92,22.3-162.45-58.91Z"/>
      <path class="cls-1" d="M334.85,378.17c-10.36-.03-18.63-8.27-18.67-18.59-.04-10.35,8.71-19.05,18.96-18.85,10.32,.2,18.47,8.57,18.42,18.93-.05,10.36-8.32,18.54-18.7,18.52Z"/>
      <path class="cls-1" d="M431.84,381.88c.05,9.33-7.42,16.9-16.7,16.92-9.4,.02-16.84-7.36-16.86-16.74-.03-9.41,7.36-16.9,16.68-16.92,9.36-.03,16.83,7.38,16.89,16.74Z"/>
      <path class="cls-1" d="M436.57,572.39v-19.31c2.26,0,4.27,.03,6.28,0,3.21-.06,6.41,.04,7.9,3.55,1.48,3.46,.13,6.28-2.71,8.7,1.38,2.31,2.73,4.57,4.05,6.79-6.31,2.66-6.82-3.36-10.29-6.54-.21,2.63-.36,4.61-.53,6.82h-4.71Zm5.11-10.76c.36,.33,.72,.66,1.09,1,1.23-1.06,2.46-2.12,3.69-3.17-1.36-.93-2.72-1.87-4.78-3.27v5.45Z"/>
    </g>
  </g>
</svg>