<?xml version="1.0" encoding="utf-8"?>
<!-- Generator: Adobe Illustrator 26.5.0, SVG Export Plug-In . SVG Version: 6.00 Build 0)  -->
<svg version="1.1" xmlns="http://www.w3.org/2000/svg" xmlns:xlink="http://www.w3.org/1999/xlink" x="0px" y="0px"
	 viewBox="4.21 75.53 291.6 147.36" style="enable-background:new 0 0 300 300;" xml:space="preserve"
	id="icon" fill="currentColor">

<style type="text/css">
	.st3{display:inline}
</style>

<g id="Back-08" class="st0">
	<path class="st3" d="M113.02,132.45c6.09,0,12.18-0.11,18.26,0.03c4.58,0.11,9.14,0.73,13.72,0.77c14.92,0.16,29.85,0.03,44.77,0.3
		c5.64,0.1,11.27,0.98,16.91,1.51c0.75,0.07,1.49,0.22,2.23,0.25c7.56,0.34,15.12,0.75,22.69,0.99c7.91,0.25,15.85,0.06,23.75,0.56
		c8.97,0.56,17.91,1.57,26.85,2.57c6.11,0.68,10.15,4.53,12.77,9.73c2.57,5.1-1.06,12.08-6.32,14.21
		c-5.17,2.09-10.38,1.79-15.71,1.77c-11.08-0.04-22.17,0.21-33.26,0.23c-6.16,0.01-12.32-0.25-18.47-0.27
		c-6.58-0.02-13.16,0.11-19.75,0.15c-1,0.01-2.02,0-2.98-0.2c-9-1.86-18.08-0.74-27.13-0.88c-2.99-0.05-5.99-0.08-8.98-0.12
		c-2.48-0.03-4.97-0.08-7.45-0.08c-4.32,0-8.64-0.02-12.96,0.05c-3.08,0.05-6.16,0.35-9.23,0.31c-5.4-0.08-10.81-0.26-16.21-0.54
		c-6.47-0.33-12.92-0.91-19.39-1.2c-4.49-0.2-8.99-0.12-13.49-0.1c-0.99,0-2,0.13-2.95,0.41c-0.9,0.26-2.48,0.84-2.45,1.19
		c0.08,1.22,0.39,2.83,1.24,3.53c2.11,1.72,4.39,3.47,6.91,4.4c9.69,3.58,17.68,9.93,26.25,15.36c6.12,3.88,12.44,7.44,18.74,11.01
		c3.81,2.16,7.79,4.07,8.68,8.98c0.92,5.06-0.66,9.56-4.08,13.11c-2.79,2.89-6.8,2.75-10.39,1.79c-7.34-1.96-14.37-4.66-20.85-8.86
		c-4.36-2.83-9.29-4.74-13.88-7.24c-2.55-1.39-4.85-3.22-7.36-4.69c-6.4-3.74-12.86-7.38-19.29-11.07
		c-8.89-5.1-17.79-10.17-26.64-15.34c-4.15-2.43-8.15-5.11-12.29-7.56c-2.5-1.48-5.12-2.77-7.71-4.1c-2.66-1.37-5.49-2.46-8-4.07
		c-6.74-4.3-7.23-12.55-0.84-17.38c7.58-5.73,15.47-11.05,23.21-16.55c6.05-4.3,11.97-8.78,18.16-12.86
		c7.78-5.12,15.78-9.92,23.69-14.85c1.63-1.01,3.25-2.05,4.95-2.93c5.03-2.59,10.1-5.09,15.14-7.65c4.53-2.3,8.92-4.9,13.59-6.87
		c4.27-1.8,8.75-3.27,13.27-4.28c4.75-1.06,9.25-0.39,12.62,3.9c4.81,6.11,3.63,14.29-2.52,19.19
		c-7.52,5.99-15.56,11.13-24.06,15.53c-7.6,3.93-15.37,7.52-23.07,11.27c-0.67,0.33-1.51,0.49-1.99,1c-0.83,0.9-2.23,2.32-1.97,2.95
		c0.42,1.05,1.88,2.12,3.05,2.33c2.77,0.49,5.64,0.61,8.46,0.65c7.25,0.08,14.51,0.03,21.76,0.03
		C113.02,132.69,113.02,132.57,113.02,132.45z"/>
</g>

</svg>
