<?xml version="1.0" encoding="utf-8"?>
<!-- Generator: Adobe Illustrator 26.5.0, SVG Export Plug-In . SVG Version: 6.00 Build 0)  -->
<svg version="1.1" xmlns="http://www.w3.org/2000/svg" xmlns:xlink="http://www.w3.org/1999/xlink" x="0px" y="0px"
	 viewBox="0 0 300 300" style="enable-background:new 0 0 300 300;" xml:space="preserve"
	id="icon" fill="currentColor">

<style type="text/css">
	.st3{display:inline}
</style>

<g id="back-01">
	<path class="st0" d="M152.28,266.72c-24.13-0.62-48.27-1.05-72.38-1.94c-12.13-0.45-24.29-1.26-36.32-2.83
		c-5.57-0.73-11.46-2.9-13.48-9.46c-1.7-5.54,1.7-11.33,7.22-12.87c6.94-1.93,13.88-0.67,20.81-0.15
		c6.86,0.52,13.69,1.42,20.55,1.82c5.21,0.3,10.46,0.19,15.69,0.08c11.63-0.24,23.12,1.21,34.62,2.64c0.9,0.11,1.81,0.1,2.72,0.1
		c11.24-0.01,22.47,0.08,33.71-0.09c6.06-0.09,12.12-0.94,18.17-0.88c4.67,0.05,9.33,1.11,14.01,1.46c2.14,0.16,4.4,0.01,6.47-0.52
		c8.85-2.27,17.86-1.23,26.8-1.54c6.91-0.24,13.69-1.25,20.15-3.89c4.27-1.74,7.18-4.68,8.74-9.11c1.4-3.99,2.13-7.97,2.1-12.24
		c-0.03-4.52,0.76-9.04,0.91-13.58c0.34-9.89,0.47-19.78,0.77-29.67c0.28-9.25,0.73-18.5,1-27.76c0.25-8.49-3.36-15.19-10.73-19.09
		c-3.88-2.05-8.56-2.86-12.98-3.54c-6.97-1.06-14.03-1.49-21.04-2.28c-8.45-0.95-16.89-2.03-25.34-2.99
		c-4.23-0.48-8.46-0.93-12.71-1.21c-11.22-0.75-22.49-1.5-33.57,0.94c-10.88,2.39-10.1,2.66-10.52,12.44
		c-0.33,7.68,0.32,15.4,0.4,23.11c0.02,2.06-0.08,4.27-0.77,6.17c-2.48,6.82-5.7,11.47-15.2,9.41c-11.75-2.54-22.4-7.58-33.11-12.74
		c-18.59-8.94-36.1-19.7-53.3-31.02c-4.99-3.28-10.22-6.25-15.02-9.8c-3.47-2.57-6.57-5.7-9.54-8.86c-2.21-2.35-2.34-5.48-0.58-8.09
		c1.54-2.28,3.56-4.4,5.79-6c10.02-7.2,20.09-14.32,30.34-21.17c4.2-2.8,9.16-4.47,13.32-7.31c15.79-10.76,33.06-18.84,49.72-28.03
		c3.7-2.04,8.17-3.15,12.41-3.66c9-1.09,15.52,5.01,15.97,14.45c0.34,7.25,0.36,14.52,0.64,21.78c0.21,5.25,0.57,10.49,0.98,15.73
		c0.21,2.7,2.01,4.11,4.56,4.14c5.15,0.07,10.3-0.14,15.44-0.16c11.06-0.05,22.12-0.28,33.17,0.01c8.06,0.21,16.12,0.87,24.13,1.78
		c14.83,1.67,29.8,2.89,43.31,10.27c9.72,5.31,16.72,13.18,21.98,22.79c5.6,10.23,7.43,21.38,7.72,32.8
		c0.39,15.53,0.93,31.09,0.44,46.6c-0.43,13.45-3.71,26.41-11.6,37.73c-8.49,12.17-20.35,19.32-34.44,23.24
		c-11.12,3.09-22.44,3.92-33.92,3.68c-7.89-0.17-15.78,0.2-23.67,0.1c-11.52-0.15-23.04-0.5-34.56-0.76
		C152.28,266.75,152.28,266.73,152.28,266.72z"/>
</g>

</svg>
