<?xml version="1.0" encoding="utf-8"?>
<!-- Generator: Adobe Illustrator 26.5.0, SVG Export Plug-In . SVG Version: 6.00 Build 0)  -->
<svg version="1.1" xmlns="http://www.w3.org/2000/svg" xmlns:xlink="http://www.w3.org/1999/xlink" x="0px" y="0px"
	 viewBox="44.28 35.52 211.43 228.97" style="enable-background:new 0 0 300 300;" xml:space="preserve"
	id="icon" fill="currentColor">

<style type="text/css">
	.st3{display:inline}
</style>

<g id="Back-07">
	<path class="st3" d="M107.89,149.59c5.03,3.01,9.14,5.56,13.32,7.97c13.3,7.66,26.52,15.47,39.98,22.83
		c6.61,3.62,13.98,5.89,20.49,9.67c10.46,6.06,20.43,12.97,30.74,19.3c9.66,5.93,19.51,11.56,29.28,17.31
		c1.91,1.13,3.97,2.03,5.81,3.26c7.59,5.06,10.11,13.44,6.72,21.96c-0.25,0.62-0.59,1.21-0.81,1.84
		c-3.55,10.39-11.64,12.27-21.34,9.78c-11.44-2.93-22.27-7.36-32.29-13.96c-6.61-4.35-14.2-7.19-21.19-10.98
		c-3.99-2.16-7.57-5.06-11.5-7.35c-10.66-6.21-21.43-12.23-32.11-18.4c-11.36-6.57-22.65-13.24-33.99-19.84
		c-1.63-0.95-3.28-1.93-5.02-2.62c-7.22-2.87-13.13-7.8-19.51-12.03c-5.04-3.35-10.89-5.47-16.32-8.24c-2.96-1.51-5.99-3-8.68-4.93
		c-9.19-6.6-9.68-18.83-0.87-25.98c5.95-4.83,12.29-9.19,18.55-13.64c17.23-12.25,34.35-24.66,51.81-36.58
		c9.34-6.38,19.26-11.9,28.94-17.78c3.42-2.08,6.83-4.2,10.38-6.05c7.67-3.99,15.45-7.79,23.16-11.71
		c7.43-3.78,14.74-7.79,22.26-11.36c7.98-3.78,16.34-6.54,25.31-6.54c10.34,0.01,18.97,9.13,18.72,19.5c-0.08,3.32,0.46,6.71,0,9.96
		c-0.31,2.22-1.37,4.85-2.99,6.27c-3.14,2.77-6.85,4.92-10.44,7.14c-8.99,5.54-18.04,10.97-27.09,16.42
		c-1.62,0.97-3.22,2.09-4.99,2.68c-14.53,4.81-26.64,14.16-39.92,21.3c-13.51,7.25-27.08,14.39-40.58,21.67
		C118.69,143.17,113.81,146.16,107.89,149.59z"/>
</g>

</svg>
