<?xml version="1.0" encoding="UTF-8"?>
<svg id="icon" data-name="Layer 2" xmlns="http://www.w3.org/2000/svg" viewBox="0 0 316.36 321.08" fill="currentColor">
  <g id="FORWARD">
    <path id="FORWARD_01" data-name="FORWARD 01" d="M210.02,318.79c-19.68,.44-39.36,.85-59.04,1.35-9.05,.23-18.1,.84-27.16,.93-7.88,.08-15.77-.29-23.66-.53-9.33-.29-18.66-.74-28-.95-6.96-.16-13.93-.04-20.89-.06-3.67,0-7.36,.25-10.98,.32-16.57,.31-29.46-3.8-35.41-24.38-1.42-4.91-2.13-10.15-2.29-15.26-.57-18.34-.75-36.7-1.12-55.04-.34-16.71-.83-33.41-1.08-50.12-.16-10.99,.03-21.99-.03-32.98-.08-14.43-.56-28.88-.29-43.3,.36-18.89,1.12-37.77,2.05-56.64,.34-6.86,1.25-13.76,2.69-20.47,1.26-5.83,4.23-10.95,9.93-13.92C22.02,3.96,29.61,1.62,37.86,1.49c13.06-.21,26.12-.79,39.18-.81,10.69-.02,21.39,.58,32.08,.86,14.05,.38,28.11,1.01,42.16,1,13.05-.01,26.1-.76,39.15-1.13,7.25-.21,14.5-.23,21.74-.49,5.25-.19,10.49-1.01,15.73-.92,15.76,.25,31.57,.43,47.13,3.28,5.99,1.1,11.84,3.22,17.57,5.38,5.96,2.25,9.87,6.84,12.34,12.71,3.54,8.41,5.99,17.02,6.53,26.23,.58,9.77,1.95,19.5,2.69,29.27,.7,9.15,.88,18.33,1.54,27.48,1.4,19.18,.24,38.36-.77,57.47-.89,17.05-1.78,34.08-1.79,51.15,0,10.17,.54,20.35,.33,30.52-.3,14.97-.11,30.05-1.88,44.88-1.77,14.82-9.12,24.72-26.42,27.89-10.01,1.83-20.07,2.63-30.28,2.39-14.95-.34-29.92-.09-44.88-.09,0,.08,0,.15,0,.23ZM267.71,59.47c-6.2,1.01-10.37,5.47-14.58,9.65-3.59,3.56-6.75,7.57-10.07,11.4-3.54,4.08-7.66,4.52-11.54,.86-2.42-2.28-4.5-4.95-6.67-7.49-10.02-11.73-23.02-19.29-37.2-24.18-20.46-7.07-41.52-7.53-62.64-2.17-8.48,2.15-16.72,4.81-24.04,9.71-14.28,9.55-25.31,22.31-34.56,36.55-9.97,15.35-16.82,32-19.18,50.41-1.18,9.21-2.27,18.35-.92,27.56,1.85,12.59,5.07,24.79,10.19,36.52,6,13.73,12.83,26.78,23.71,37.44,7.5,7.36,15.51,13.91,24.54,19.25,16.98,10.03,35.53,13.82,54.95,13.36,8.47-.2,17.01-1.26,25.33-2.87,18.59-3.6,34.58-12.66,48.84-24.94,1.36-1.17,2.57-2.58,3.59-4.06,1.76-2.54,2.55-5.38,.41-8.06-3.89-4.88-7.83-9.74-12.01-14.36-2.29-2.53-5.09-4.62-7.76-6.78-1.4-1.14-2.88-1.13-4.43,.15-5.46,4.5-10.91,9.02-16.52,13.33-12.01,9.23-25.58,13.68-40.79,13.14-12.35-.44-23.92-4.06-35.13-8.76-16.9-7.08-28.12-19.52-32.71-37.47-3.87-15.14-5.14-30.54-4.36-46.17,.75-15.05,5.57-28.62,14.34-40.7,5.62-7.73,12.44-14.38,20.11-20.17,8.2-6.2,17.1-10.96,27.41-11.54,16.44-.91,31.62,3.22,44.73,13.63,4.4,3.49,8.76,7.05,12.95,10.79,5.44,4.85,5.79,9.82,1.09,14.51-6.36,6.35-12.89,12.52-19.26,18.86-1.13,1.13-1.84,2.69-2.74,4.05,1.52,1,3.03,2.01,4.55,2.99,.22,.14,.51,.21,.77,.25,8.88,1.17,17.75,2.51,26.66,3.44,10.09,1.05,20.22,1.79,30.34,2.55,7.13,.54,14.28,1,21.43,1.29,3.71,.15,4.17-.4,4.74-3.91,.17-1.07,.21-2.17,.2-3.25-.12-11.63-.38-23.26-.37-34.89,0-12.27,.39-24.54,.32-36.8-.02-4.51,.48-9.36-3.75-13.14Z"/>
  </g>
</svg>
