<?xml version="1.0" encoding="utf-8"?>
<!-- Generator: Adobe Illustrator 26.5.0, SVG Export Plug-In . SVG Version: 6.00 Build 0)  -->
<svg version="1.1" xmlns="http://www.w3.org/2000/svg" xmlns:xlink="http://www.w3.org/1999/xlink" x="0px" y="0px"
	 viewBox="0 0 350 350" style="enable-background:new 0 0 350 350;" xml:space="preserve"
	 id="icon" fill="currentColor">

<g id="FORWARD_x5F_01">
	<path d="M256.21,92.97c6.19-5.03,12.51-10.18,18.84-15.31c0.91-0.74,1.91-1.37,2.86-2.07
		c4.53-3.34,10.77-0.56,11.65,4.27c1.03,5.7,1.63,11.48,2.21,17.25c1.15,11.29-0.04,22.48-1.32,33.7
		c-0.72,6.31-0.84,12.69-1.27,19.03c-0.17,2.45-0.35,4.9-0.69,7.32c-0.7,4.96-5.02,9.38-10.63,10.31
		c-16.71,2.79-33.4,4.31-50.2,0.11c-6.56-1.64-13.39-2.27-20.11-3.18c-4.37-0.6-7.19-3.45-9.55-6.63
		c-1.61-2.17-1.11-5.07,0.58-7.16c5.27-6.56,9.59-13.88,16.13-19.42c2.46-2.08,4.33-4.86,6.68-7.56c-2.66-1.72-5.07-3.45-7.63-4.91
		c-5.49-3.13-10.98-6.26-16.6-9.13c-6.07-3.11-12.76-3.96-19.45-4.59c-14.29-1.36-27.57,1.99-39.85,9.17
		c-8.42,4.93-15.17,11.74-20.21,20.17c-0.14,0.23-0.24,0.49-0.4,0.71c-8.56,11.98-12.06,25.66-13.98,40.03
		c-2.52,18.9,2.97,35.85,12.87,51.31c8.98,14.02,22.81,22.52,38.68,26.41c12.71,3.12,25.86,3.32,38.4-2.29
		c6.26-2.8,12.71-5.16,18.99-7.91c1.87-0.82,3.68-2.06,5.13-3.5c3.64-3.61,8.05-4.41,12.81-3.84c7.54,0.91,14.4,3.48,20.08,8.77
		c2.59,2.41,5.3,4.7,7.99,7c4.35,3.72,5.21,8.3,1.46,12.63c-3.83,4.43-8.06,8.65-12.67,12.26c-14.04,10.99-29.74,18.73-47.3,22.19
		c-12.77,2.52-25.74,4.03-38.68,2.02c-13.07-2.03-25.78-5.74-37.64-11.8c-6.92-3.53-14-6.89-20.44-11.18
		c-13.16-8.78-22.33-21.13-29.06-35.31c-6.82-14.39-12.43-29.27-14.18-45.2c-0.92-8.34-0.55-16.84-0.61-25.26
		c-0.03-4.53-0.36-9.21,0.58-13.57c1.77-8.21,3.72-16.49,6.75-24.29c6.22-16.02,13.65-31.56,25.17-44.55
		c9.2-10.37,18.39-20.78,30.37-28.28c8.28-5.18,16.86-9.7,26.62-10.06c8.99-0.33,18.13,0.34,27.04,1.64
		c25.03,3.66,47,14.82,67.42,29.25C247.76,84.82,251.8,89.09,256.21,92.97z"/>
</g>

</svg>
