<?xml version="1.0" encoding="utf-8"?>
<!-- Generator: Adobe Illustrator 26.5.0, SVG Export Plug-In . SVG Version: 6.00 Build 0)  -->
<svg id="icon" version="1.1" xmlns="http://www.w3.org/2000/svg" xmlns:xlink="http://www.w3.org/1999/xlink" x="0px" y="0px"
	 viewBox="64.83 60.63 214.83 215.79" style="enable-background:new 0 0 350 350;" xml:space="preserve" fill="currentColor">

<g id="MENU">
	<path class="st1" d="M156.71,108.78c-15.9,0-31.8,0.12-47.7-0.05c-8.63-0.09-17.26-0.5-25.87-1.12
		c-6.56-0.47-12.56-2.62-15.89-8.87c-2.3-4.32-2.68-9.19-2.28-14.01c0.37-4.41,1.03-8.8,1.73-13.17c0.59-3.71,2.85-6.53,6.24-7.69
		c4.32-1.48,8.9-3.07,13.37-3.08c21.8-0.05,43.6-0.7,65.39,1.08c14.48,1.19,29.06,1.06,43.56,2.06
		c14.94,1.03,29.85,2.64,44.76,4.17c7.76,0.8,15.5,1.85,23.2,3.05c2.45,0.38,4.92,1.35,7.12,2.54c6.25,3.38,6.7,9.68,7.28,15.73
		c0.3,3.12,0.01,6.29,0.14,9.44c0.12,2.95-2.52,6.59-6.27,8.16c-4.23,1.78-8.63,2.59-13.26,2.56c-4.15-0.03-8.3,0.49-12.46,0.66
		c-2.54,0.11-5.08,0.07-7.62,0.02c-5.16-0.11-10.32-0.36-15.48-0.38c-16.62-0.09-33.25-0.1-49.87-0.14c-5.36-0.01-10.72,0-16.08,0
		C156.71,109.43,156.71,109.1,156.71,108.78z"/>
	<path class="st1" d="M191.69,275.13c-15.84,0-26.84-0.16-37.83,0.04c-11.99,0.22-23.97,0.81-35.96,1.17
		c-11.11,0.34-22.15-0.35-33.08-2.45c-6.44-1.23-10.9-6.08-11.51-12.71c-0.33-3.52-0.63-7.05-0.63-10.58
		c0.01-5.38,2.92-9.26,7.18-12.13c5.63-3.79,12.03-5.33,18.74-5.91c23.98-2.07,47.93-4.21,72-5.23
		c19.61-0.83,39.04,0.63,58.51,2.11c8.51,0.64,17.02,1.21,25.51,2.03c2.77,0.27,5.59,0.92,8.19,1.93
		c6.29,2.44,10.39,7.06,12.23,13.58c1.35,4.79,1.98,9.54-0.22,14.36c-1.44,3.17-3.57,5.31-6.77,6.66
		c-7.61,3.21-15.59,4.48-23.73,5.56C225.19,276.1,206,274.57,191.69,275.13z"/>
	<path class="st1" d="M178.94,193.36c-14.17,0-28.36-0.33-42.52,0.08c-17.51,0.51-35.01,1.65-52.51,2.5
		c-1.36,0.07-2.73,0.07-4.09,0.04c-6.42-0.14-8.17-1.42-9.76-7.58c-0.81-3.15-1.09-6.27-0.26-9.64c1.02-4.11,1.18-8.43,1.69-12.66
		c0.46-3.77,2.36-6.63,6-7.68c4.68-1.35,9.45-2.65,14.27-3.21c10.82-1.25,21.68-2.11,32.54-2.96c10.41-0.81,20.83-1.63,31.27-2.05
		c17.61-0.71,35.22-1.34,52.84-1.52c8.42-0.09,16.86,0.85,25.28,1.49c10.41,0.79,20.81,1.68,31.21,2.66
		c6.68,0.63,10.81,4.52,13.1,10.69c2.22,5.99,1.73,12.19,1.24,18.3c-0.27,3.33-2.45,6.03-6.03,6.54
		c-7.44,1.07-14.9,2.32-22.39,2.69c-17.96,0.88-35.93,1.34-53.91,1.86c-5.99,0.17-11.99,0.03-17.99,0.03
		C178.94,193.08,178.94,193.22,178.94,193.36z"/>
</g>
</svg>
