<?xml version="1.0" encoding="UTF-8"?>
<svg id="Layer_2" data-name="Layer 2" xmlns="http://www.w3.org/2000/svg" viewBox="0 0 316.8 319.43">
  <g id="PAUSE">
    <path id="PAUSE_01" data-name="PAUSE 01" d="M315.83,117.99c.34,13.51,.94,27.02,.97,40.53,.04,15.5-.52,31-.65,46.5-.12,14.42,.26,28.84-.11,43.25-.27,10.59-1.2,21.17-2.19,31.72-.51,5.47-1.6,10.91-2.75,16.3-1.35,6.35-5.43,10.96-10.45,14.77-2.14,1.62-4.48,2.99-6.81,4.36-4.06,2.39-8.71,2.05-13.16,2.75-14.62,2.3-29-1.31-43.5-1.55-8.52-.14-17.05-.28-25.56-.15-25.29,.39-50.57,1.11-75.86,1.34-15.13,.14-30.27-.45-45.4-.6-4.34-.04-8.69,.26-13.04,.48-11.59,.59-23.21,2.17-34.75,1.64-19.4-.89-35.16-9.14-39.56-31.61C-.73,268.53-.13,249.3,.39,229.99c.46-17.22,1.01-34.44,1.18-51.66,.22-22.04,.06-44.08,.16-66.12,.05-11.07,.23-22.13,.49-33.2,.22-9.15,.11-18.37,1.14-27.44,1.15-10.13,2.84-20.27,5.37-30.14C11.16,11.93,18.4,6.69,27.84,4.49c2.38-.56,4.74-1.34,7.15-1.58,4.09-.41,8.21-.5,12.33-.66,14.32-.55,28.63-1.18,42.95-1.59C102.22,.32,114.19,.09,126.16,.06c31.57-.08,63.14-.1,94.7,.02,8.61,.03,17.22,.6,25.82,1,6.96,.32,13.99,.28,20.86,1.29,7.03,1.04,14.3,.05,21.11,3.07,10.69,4.74,19.19,11.59,23.65,22.67,.82,2.04,1.23,4.36,1.32,6.57,.53,13.16-.25,26.35,1.51,39.51,.81,6.06,.09,12.32,.09,18.49,0,8.43,0,16.87,0,25.3,.2,0,.4,0,.61,0ZM184.44,255.11c.34,2.14,1.12,6.04,1.55,9.98,.43,3.9,2.83,5.65,6.24,6.51,1.22,.31,2.5,.37,3.75,.56,3.91,.6,7.81,1.48,11.74,1.74,3.32,.22,6.68-.21,10.02-.48,2.2-.18,4.11-1.08,4.66-3.43,.75-3.14,1.78-6.33,1.81-9.51,.08-10.06-.38-20.12-.38-30.18,0-20.22,.13-40.45,.26-60.67,.08-12.25,.25-24.5,.36-36.74,.13-14.59,.25-29.19,.34-43.78,0-1.27-.21-2.53-.25-3.8-.19-6.06-.54-12.13-.48-18.19,.07-7.24,.58-14.47,.77-21.7,.17-6.56-3.05-11.41-8.39-11.86-9.19-.77-18.28,.31-27.18,2.73-2.64,.72-3.96,2.68-4.09,5.45-.22,4.77-.69,9.55-.69,14.32,0,8.96,.16,17.92,.46,26.88,.32,9.52,1.02,19.02,1.29,28.54,.36,12.51,.42,25.03,.69,37.55,.22,10.25,.11,20.53,.97,30.73,1.21,14.2-.62,28.24-1.26,42.34-.47,10.4-1.37,20.79-2.2,33.03Zm-80.3-53.8c0,1.63-.04,3.27,0,4.9,.34,11.33,.52,22.66,1.1,33.98,.44,8.59,1.24,17.17,2.19,25.71,.59,5.37,2.63,7.46,8.15,8.14,4.63,.56,9.58,1.22,14.01,.21,7.28-1.66,8.26-.81,8.2-9.03-.09-12.25-.56-24.5-.36-36.74,.48-28.85,1.55-57.69,1.78-86.53,.12-14.31-1.33-28.62-1.6-42.94-.34-17.85-.33-35.72-.21-53.58,.04-5.67-2.52-10.92-7.97-12.73-6.22-2.07-12.7-3.05-19.29-2.09-4.33,.63-5.94,2.22-6.77,6.48-.49,2.48-.89,5.01-.95,7.53-.28,12.88-.64,25.77-.59,38.65,.06,16.51,.03,33.04,.85,49.53,1.14,22.84,2.47,45.65,1.44,68.53Z"/>
  </g>
</svg>