<?xml version="1.0" encoding="utf-8"?>
<!-- Generator: Adobe Illustrator 26.5.0, SVG Export Plug-In . SVG Version: 6.00 Build 0)  -->
<svg version="1.1" xmlns="http://www.w3.org/2000/svg" xmlns:xlink="http://www.w3.org/1999/xlink" x="0px" y="0px"
	 viewBox="110.41 49.07 129.19 250.68" style="enable-background:new 0 0 350 350;" xml:space="preserve"
	id="icon" fill="currentColor">

<g id="PAUSE_x5F_03">
	<path d="M194.33,197.1c0-9.79,0.3-22.59-0.09-35.37c-0.37-11.84-1.73-23.66-2.19-35.5
		c-0.42-11.14-0.41-22.3-0.24-33.45c0.12-7.7,0.41-15.44,1.4-23.06c1.04-8.05,6.47-13.32,13.25-17.2
		c5.86-3.36,12.22-2.7,18.24-1.04c5.01,1.38,8.56,5.26,9.87,10.42c1.35,5.33,2.58,10.77,3.08,16.23c0.81,8.83,1.26,17.72,1.35,26.6
		c0.15,15.42-0.2,30.83-0.13,46.25c0.05,11.42,0.6,22.84,0.65,34.27c0.09,21.4,0.17,42.81-0.12,64.21
		c-0.12,9.13-1.25,18.25-1.8,27.39c-0.28,4.7-0.31,9.39-2.27,13.84c-2.39,5.43-6.03,8.41-12.33,8.98
		c-6.25,0.56-11.32-1.87-16.5-4.33c-4.57-2.17-6.2-6.58-6.69-11.18c-1.45-13.5-2.96-27.01-3.8-40.56
		C195.1,229.12,194.92,214.6,194.33,197.1z"/>
	<path d="M113.95,223.09c-1.13-17.45-2.49-34.88-3.3-52.34c-0.48-10.29-0.09-20.62-0.11-30.93
		c-0.02-9.88-0.22-19.77-0.06-29.65c0.23-14.15,0.58-28.29,1.2-42.43c0.16-3.53,1.45-7.04,2.41-10.5c1.31-4.73,5.25-7.03,9.45-7.57
		c5.87-0.75,11.94-0.77,17.84-0.21c6.3,0.59,10.67,5.82,11.04,12.24c0.48,8.5,0.71,17.02,1.1,25.52c0.67,14.58,1.6,29.15,2,43.73
		c0.48,17.12,1.01,34.27,0.59,51.39c-0.41,16.85-0.98,33.66-0.1,50.52c0.64,12.3,0.03,24.66,0.15,36.99
		c0.05,5.02-0.06,9.93-1.95,14.69c-1.89,4.76-5.06,7.62-9.95,9.58c-5.24,2.1-10.29,1.32-15.35,0.73
		c-6.41-0.75-12.06-7.27-13.44-14.69c-0.55-2.93-0.98-5.92-1.08-8.89c-0.51-16.04-0.9-32.09-1.34-48.14
		C113.35,223.12,113.65,223.11,113.95,223.09z"/>
</g>

</svg>
