<?xml version="1.0" encoding="UTF-8"?>
<svg id="Layer_2" data-name="Layer 2" xmlns="http://www.w3.org/2000/svg" viewBox="0 0 317.7 322.4">
  <g id="PAUSE">
    <g id="PAUSE_03" data-name="PAUSE 03">
      <path d="M.61,226.18c0-15.52-.2-31.04,.05-46.55,.4-24.58,1.16-49.15,1.63-73.73,.13-6.98-.42-13.97-.32-20.94,.09-5.97,.81-11.93,.97-17.91,.17-6.24-.07-12.49,.02-18.73,.1-6.69,.33-13.38,.62-20.06,.09-2.16,.36-4.35,.87-6.44,.95-3.82,3.43-6.43,6.46-9.03,7.45-6.41,16.55-6.84,25.46-7.93,3.73-.46,7.61,.41,11.4,.22,16.12-.77,32.23-1.74,48.34-2.55,6.34-.32,12.69-.36,19.04-.59C133,1.26,150.85,.1,168.71,0c18.59-.09,37.2,.51,55.77,1.43,13.56,.67,27.08,2.25,40.6,3.56,8.19,.8,16.5,1.22,24.49,3.02,6.01,1.35,12.59,2.92,16.61,8.41,1.91,2.61,3.81,5.75,4.21,8.85,1.92,14.89,3.46,29.84,4.86,44.79,.55,5.86,.4,11.78,.6,17.67,.55,16.68,1.37,33.35,1.62,50.04,.29,19.58,.32,39.18,.03,58.76-.26,18.4-.8,36.81-1.76,55.19-.57,11.02-2.58,21.97-3.17,32.99-.41,7.52-2.75,14.32-5.12,21.26-2.09,6.13-6.61,9.48-12.43,11.06-5.92,1.61-11.95,2.96-18.02,3.79-6.81,.93-13.72,1.54-20.59,1.57-7.5,.03-15.01-.79-22.51-1.21-8.15-.45-16.3-1.03-24.46-1.28-21.76-.66-43.53-1.23-65.3-1.71-13.97-.31-27.94-.48-41.92-.53-16.05-.07-32.1,.19-48.15,.05-8.25-.07-16.51-.41-24.72-1.19-4.7-.45-9.35-1.79-13.91-3.14-5.24-1.55-8.24-5.57-9.51-10.66-2.8-11.28-4.63-22.7-4.84-34.38-.25-14.06-.72-28.12-1.1-42.17,.2,0,.41,0,.61,0ZM144.83,20.94c0-.22,0-.44,0-.67-25.47,.38-51.02-.87-76.36,2.43-9.76,1.27-19.86,2.02-28.56,7.77-3.31,2.18-6.29,4.54-7.07,8.5-1.66,8.42-3.29,16.86-4.37,25.36-.87,6.82-.8,13.75-1.38,20.61-1.11,13.18-2.57,26.33-3.53,39.52-1,13.74-1.81,27.51-2.29,41.28-.58,16.86-.79,33.73-1.05,50.59-.14,8.97,.16,17.95-.1,26.92-.32,11.35-.42,22.68,2.44,33.74,1.09,4.22,2.51,8.67,5,12.14,3.78,5.25,9.66,7.33,16.2,7.27,2.54-.02,5.09-.05,7.62,.16,20.96,1.72,41.88,3.86,62.87,5.11,13.01,.77,26.09,.4,39.14,.19,24.67-.39,49.33-1.07,74-1.56,15.03-.3,30.1,1.58,45.1-.53,5.39-.76,10.74-2.51,14.46-6.29,3.03-3.09,5.25-7.48,6.54-11.69,3.35-10.94,3.42-22.34,3.29-33.68-.12-10.59-.6-21.18-.49-31.76,.18-18.77,.77-37.53,1.01-56.3,.09-6.8-.34-13.6-.44-20.4-.05-3.34,.38-6.7,.14-10.02-.67-9.31-1.61-18.6-2.37-27.9-.47-5.78-.62-11.59-1.26-17.35-.86-7.83-1.91-15.64-3.15-23.42-1.19-7.48-2.3-15.03-4.27-22.32-1.04-3.85-3.13-7.9-7.44-9.5-3.21-1.19-6.55-2.2-9.93-2.69-6.88-1.01-13.81-1.82-20.75-2.33-15.72-1.17-31.44-2.59-47.18-3.04-18.58-.52-37.19-.12-55.79-.12Z"/>
      <path d="M226.06,99.96c0,8.89,.21,17.78-.05,26.66-.42,14.31-1.23,28.61-1.69,42.92-.21,6.61-.01,13.24,.03,19.86,.09,14.15-.02,28.31,.4,42.45,.14,4.91,1.13,9.92,2.53,14.65,1.79,6.11,1.58,12.08,.93,18.26-.75,7.07-4.39,11.9-10.73,14.33-3.06,1.17-6.75,1.19-10.1,.97-5.35-.35-10.89-.42-15.32-4.4-2.07-1.87-3.8-3.74-4.37-6.63-1.18-5.98-2.36-11.91-.44-17.96,.32-1,.14-2.16,.14-3.25-.02-16.06,.35-32.12-.18-48.16-.56-16.92-2.28-33.81-2.92-50.73-.47-12.41-.1-24.85,.06-37.27,.09-7.16,.63-14.31,.74-21.47,.16-11.25,.19-22.5,.15-33.75-.01-3.7-.43-7.4-.56-11.11-.11-3.06,1.26-5.14,4.25-6.21,2.64-.94,5.19-2.11,7.81-3.13,.75-.29,1.56-.51,2.36-.55,3.77-.17,7.55-.54,11.3-.29,3.39,.22,6.86,.76,10.05,1.86,3.87,1.32,4.38,5.12,4.5,8.58,.65,18.12,1.14,36.24,1.69,54.35-.19,0-.37,.01-.56,.02Z"/>
      <path d="M104.13,237.98c-.54-18.75-.93-37.5-1.67-56.24-.51-13.13-1.64-26.23-2.22-39.36-.43-9.77-.65-19.57-.5-29.35,.1-5.95,1.25-11.88,1.65-17.84,.64-9.67,1.03-19.36,1.56-29.05,.47-8.68,1.26-17.31,3.78-25.71,1.27-4.21,4.27-6,8.34-6.01,2.5,0,5.1,.33,7.47,1.09,3.69,1.19,7.3,2.7,10.8,4.38,3.84,1.84,5.7,5.26,5.94,9.4,.35,6.14,.69,12.3,.64,18.44-.32,37.82-.91,75.64-1.02,113.46-.02,8.64,1.85,17.28,2.21,25.94,.37,8.85-.08,17.73-.13,26.6-.02,2.62,.07,5.23,.14,7.85,.21,7.06,.63,14.13,.6,21.19-.01,3.48-.68,6.99-1.32,10.43-.97,5.19-5.52,5.87-9.42,6.14-5.09,.34-10.29-.18-15.39-.8-3.91-.48-6.44-3.02-7.39-6.98-.34-1.4-.73-2.82-1.35-4.12-4.49-9.45-2.74-19.57-3.45-29.42,.25-.01,.49-.02,.74-.04Z"/>
    </g>
  </g>
</svg>