<?xml version="1.0" encoding="utf-8"?>
<!-- Generator: Adobe Illustrator 26.5.0, SVG Export Plug-In . SVG Version: 6.00 Build 0)  -->
<svg version="1.1" xmlns="http://www.w3.org/2000/svg" xmlns:xlink="http://www.w3.org/1999/xlink" x="0px" y="0px"
	 viewBox="0 0 350 350" style="enable-background:new 0 0 350 350;" xml:space="preserve"
	id="icon" fill="currentColor">

<g id="PLAY_x5F_03">
	<path d="M78.42,45.87c10.83,0.29,19.87,2.72,28.78,6.44c18.98,7.9,36.76,17.95,54.34,28.49
		c11.11,6.66,22.68,12.54,33.75,19.24c14.18,8.58,28.2,17.45,42.07,26.53c14.41,9.43,28.62,19.15,42.79,28.94
		c5.74,3.96,11.3,8.23,16.62,12.74c5.18,4.39,8.17,10.18,6.79,17.09c-0.63,3.12-2.76,6-4.46,8.84
		c-4.57,7.62-11.15,13.47-18.28,18.43c-11.74,8.16-23.57,16.3-35.99,23.35c-30.71,17.43-62.94,31.6-96.5,42.62
		c-17.11,5.62-34.31,10.97-51.46,16.46c-8.61,2.76-17.19,5.62-25.82,8.35c-4.21,1.33-8.42,0.67-12.6-0.39
		c-5.04-1.28-11.46-8.59-11.46-15.61c0-16.86-1-33.71-0.88-50.56c0.16-22.13,0.96-44.26,1.61-66.39
		c0.41-13.96,0.93-27.92,1.62-41.87c0.45-9.14,1.43-18.26,1.93-27.4c0.48-8.69,0.53-17.4,1.01-26.09
		c0.24-4.41,0.56-8.91,1.62-13.17c2.26-9.04,9.76-12.55,17.64-15.18C74.06,45.87,76.91,46.04,78.42,45.87z"/>
</g>

</svg>
