<?xml version="1.0" encoding="UTF-8"?>
<svg id="icon" data-name="Layer 2" xmlns="http://www.w3.org/2000/svg" viewBox="0 0 316.14 320.22" fill="currentColor">
  <g id="BACKWARD">
    <g id="BACKWARD_01" data-name="BACKWARD 01">
      <path d="M316.14,96.37c-.29,12.28-.81,24.7-.82,37.12-.03,21.68,.5,43.36,.31,65.03-.17,19.4-1.01,38.79-1.52,58.19-.23,8.61-.03,17.26-.66,25.84-.73,9.86-3.02,19.36-9.99,27-5.47,6-12.34,8.93-20.43,9.25-3.77,.15-7.42,.62-11.27-.37-2.75-.71-5.92,.31-8.91,.37-12.67,.23-25.35,.34-38.02,.61-9.43,.2-18.85,.81-28.27,.82-9.69,.01-19.38-.48-29.07-.75-8.43-.23-16.86-.51-25.3-.68-17.78-.37-35.55-.77-53.33-.99-13.87-.17-27.75,.28-41.6-.27-7.18-.28-14.42-1.61-21.41-3.37-10.53-2.66-17.21-9.88-19.91-20.29-1.35-5.19-1.96-10.68-2.13-16.05-.6-18.94-.96-37.89-1.21-56.83-.19-14.5,.23-29.02-.2-43.52-.43-14.67-1.87-29.31-2.3-43.98-.32-10.87,.14-21.76,.49-32.64,.28-8.79,.77-17.58,1.44-26.35,.66-8.58,1.58-17.14,2.55-25.69,.61-5.39,1.19-10.82,2.43-16.08,1.01-4.28,2.83-8.39,4.54-12.47,3.73-8.88,11.44-12.79,20.05-15.15C44.43,1.63,57.63,.58,70.86,.2c8.78-.25,17.58-.29,26.36-.01,20.02,.62,40.02,1.93,60.04,2.14,18.04,.19,36.09-.86,54.13-1.12,17.4-.25,34.81-.26,52.21-.21,6.97,.02,14,.04,20.9,.89,4.68,.58,9.29,2.31,13.74,4.04,9.39,3.64,12.99,11.46,14.18,20.8,2.69,21.09,2.97,42.31,3.37,63.52,.04,1.99,.21,3.99,.33,6.12ZM47.62,59.11c-.84,2.12-2.15,4.17-2.42,6.35-.51,4.12-.56,8.32-.58,12.48-.06,17.42-.06,34.83-.02,52.25,.01,5.79,.32,11.59,.28,17.38-.02,2.86,1.75,3.33,3.83,3.37,3.72,.07,7.46,.17,11.15-.14,15.8-1.32,31.6-2.66,47.38-4.25,7.19-.73,14.35-1.91,21.47-3.2,1.64-.3,3.05-1.89,4.57-2.89-.9-1.36-1.6-2.92-2.73-4.05-6.43-6.39-13-12.65-19.45-19.03-3.05-3.01-4.89-8.06-.49-12.24,1.9-1.8,3.76-3.64,5.71-5.38,9.19-8.2,18.86-15.64,31.14-18.64,10.38-2.53,20.82-4.01,31.37-.75,7.93,2.45,14.75,6.74,21.16,11.92,7.96,6.44,14.97,13.7,20.51,22.31,10.14,15.78,12.57,33.36,11.54,51.61-.41,7.22-1.49,14.41-2.43,21.59-1.13,8.62-3.82,16.85-8.21,24.29-6.63,11.25-16.67,18.72-28.81,23.32-4.57,1.73-9.23,3.23-13.91,4.61-17.57,5.19-34.96,5.02-51.02-4.4-8.77-5.14-16.54-12.01-24.62-18.29-1.99-1.55-3.52-1.92-5.51-.37-7.06,5.49-13.22,11.86-18.39,19.14-3.23,4.56-2.95,6.92,1.11,11.88,.57,.7,1.25,1.32,1.94,1.9,14.09,12,29.81,20.81,48.04,24.8,12.66,2.77,25.47,3.27,38.35,2.55,2.62-.15,5.26-.25,7.85-.65,10.9-1.72,21.25-5.16,31.06-10.24,16.79-8.7,30.64-20.91,40.82-36.68,10.12-15.68,16.89-33.01,20.32-51.44,1.14-6.11,2.37-12.44,1.94-18.56-.68-9.81-2.34-19.6-4.27-29.27-2.14-10.75-7.31-20.41-12.36-30.04-5.78-11.02-13.63-20.61-22.22-29.43-5.89-6.05-12.7-11.48-19.88-15.93-10.45-6.48-22.56-8.91-34.58-10.51-13.47-1.8-26.96-.54-40.29,2.18-9.65,1.97-18.15,6.63-26.6,11.37-7,3.93-13.33,8.74-18.57,14.89-2.17,2.55-4.19,5.26-6.61,7.54-4.72,4.45-8.73,3.88-12.86-1.15-3.39-4.12-6.82-8.27-10.71-11.9-3.85-3.59-7.61-7.67-14.02-8.29Z"/>
    </g>
  </g>
</svg>
