<?xml version="1.0" encoding="utf-8"?>
<!-- Generator: Adobe Illustrator 26.5.0, SVG Export Plug-In . SVG Version: 6.00 Build 0)  -->
<svg version="1.1" xmlns="http://www.w3.org/2000/svg" xmlns:xlink="http://www.w3.org/1999/xlink" x="0px" y="0px"
	 viewBox="58.33 55.8 227.83 238.41" style="enable-background:new 0 0 350 350;" xml:space="preserve"
	 id="icon" fill="currentColor">

<g id="BACKWARD_x5F_03">
	<path d="M124.78,125.97c5.61,4.92,10.98,9.52,16.21,14.27c2.81,2.55,5.61,5.18,8.02,8.1
		c4.09,4.98,2.59,9.87-3.34,12.21c-3.59,1.42-7.19,1.99-11.12,1.81c-19.05-0.85-38.09-0.56-57.06,1.74
		c-2.34,0.28-4.83,0.9-7.03,0.39c-3.44-0.79-6.96-1.97-9.9-3.84c-1.42-0.9-2.23-3.74-2.23-5.71c-0.02-10.07,0.43-20.14,0.49-30.21
		c0.08-13.24-0.06-26.49-0.04-39.73c0-1.98,0.1-4.03,0.63-5.91c1.48-5.25,6.3-7.52,10.8-4.54c8.95,5.93,18.46,11.33,24.09,20.61
		c3.25-3.06,6.34-6.25,9.72-9.09c6.31-5.3,12.3-11.23,19.33-15.34c7.17-4.19,15.28-7,23.25-9.53c15.1-4.81,30.74-6.44,46.49-4.75
		c12.79,1.38,24.81,5.57,36.11,11.94c8.44,4.76,16.29,10.22,23.18,16.98c9.75,9.58,16.49,21.27,20.91,33.99
		c4.18,12.01,7.69,24.38,10.08,36.87c3.35,17.53,4.07,35.29-0.01,52.95c-3.81,16.5-11.53,31.17-22.49,43.81
		c-8.52,9.83-19.33,17.19-31.07,23.03c-14.59,7.25-29.84,12.59-45.77,15.91c-15.21,3.17-30.45,3.01-45.62-0.33
		c-2.72-0.6-5.4-1.57-7.96-2.67c-5.9-2.54-11.79-5.13-17.54-7.98c-7.31-3.61-12.66-9.62-18.12-15.45c-0.55-0.59-1.05-1.27-1.7-1.71
		c-4.27-2.9-5.73-6.62-3.88-11.45c3.84-10.06,10.27-18.22,18.76-24.85c3.11-2.43,9.03-0.38,11.71,1.73
		c5.54,4.34,10.85,9.46,17.13,12.28c13.27,5.96,27.01,10.45,42.04,10.59c17.36,0.16,32.34-5.08,45.41-16.23
		c7.01-5.98,10.43-14.21,13.81-22.44c1.19-2.91,2.48-5.8,3.4-8.8c4.73-15.42,4.77-31.08,1.95-46.82
		c-1.65-9.19-4.11-18.15-7.77-26.79c-7.23-17.1-20.22-27.37-37.68-32.62c-13.45-4.04-26.4-1.18-39.21,2.82
		c-7.46,2.33-14.44,5.84-20.82,10.41C132.6,115.43,128.82,120.63,124.78,125.97z"/>
</g>

</svg>
